<svg width="24" height="24" viewBox="0 0 24 24" fill="none" xmlns="http://www.w3.org/2000/svg">
<path d="M7.2 4H16.8C19.1196 4 21 5.8804 21 8.2V14.8C21 17.1196 19.1196 19 16.8 19H16.2426C15.447 19 14.6839 19.3161 14.1213 19.8787L12.8485 21.1515C12.3799 21.6201 11.6201 21.6201 11.1515 21.1515L9.87868 19.8787C9.31607 19.3161 8.55301 19 7.75736 19H7.2C4.8804 19 3 17.1196 3 14.8V8.2C3 5.8804 4.8804 4 7.2 4Z" stroke="#F0F0F0" stroke-width="1.5" stroke-linecap="round"/>
<path d="M16 13C16.5523 13 17 12.5523 17 12C17 11.4477 16.5523 11 16 11C15.4477 11 15 11.4477 15 12C15 12.5523 15.4477 13 16 13Z" fill="#F0F0F0"/>
<path d="M12 13C12.5523 13 13 12.5523 13 12C13 11.4477 12.5523 11 12 11C11.4477 11 11 11.4477 11 12C11 12.5523 11.4477 13 12 13Z" fill="#F0F0F0"/>
<path d="M8 13C8.55228 13 9 12.5523 9 12C9 11.4477 8.55228 11 8 11C7.44772 11 7 11.4477 7 12C7 12.5523 7.44772 13 8 13Z" fill="#F0F0F0"/>
</svg>
