<svg width="17" height="17" viewBox="0 0 17 17" fill="none" xmlns="http://www.w3.org/2000/svg">
<path d="M2.23711 8.00878C2.23711 8.00878 3.06377 5.68878 3.48377 4.90878C3.7133 4.53642 4.03846 4.2324 4.42538 4.02839C4.81231 3.82437 5.24686 3.72782 5.68377 3.74878H10.9504V10.2754C10.4038 10.8821 8.3371 13.1221 8.3371 13.1221C7.84377 13.6154 7.37711 14.4554 6.57044 13.9421C6.44923 13.8516 6.35696 13.7277 6.30488 13.5857C6.2528 13.4437 6.24315 13.2895 6.2771 13.1421C6.46377 12.6354 6.8571 11.6888 7.1571 10.9288C7.27044 10.6288 7.00377 10.3088 6.59044 10.3088L3.45825 10.2422C1.99825 10.2422 1.87044 8.79544 2.23711 8.00878Z" stroke="#F0F0F0" stroke-width="0.953333" stroke-linecap="round"/>
<path d="M10.9724 4.16842C10.9661 4.00369 10.993 3.83937 11.0513 3.68519C11.1096 3.53101 11.1983 3.39009 11.312 3.27076C11.4258 3.15143 11.5623 3.05612 11.7135 2.99045C11.8647 2.92477 12.0275 2.89008 12.1924 2.88841H13.4257C13.7658 2.90229 14.0866 3.05041 14.3178 3.30032C14.549 3.55022 14.6717 3.88155 14.659 4.22175V10.2218C14.6717 10.5619 14.549 10.8933 14.3178 11.1432C14.0866 11.3931 13.7658 11.5412 13.4257 11.5551H12.1924C11.8824 11.5478 11.5861 11.4259 11.3607 11.2129C11.1354 10.9998 10.997 10.7109 10.9724 10.4018V4.16842Z" stroke="#F0F0F0" stroke-width="0.966667" stroke-linecap="round"/>
</svg>
