<svg width="24" height="24" viewBox="0 0 24 24" fill="none" xmlns="http://www.w3.org/2000/svg">
<path d="M13 8H20" stroke="#AEAEAE" stroke-width="1.5" stroke-linecap="round"/>
<path d="M5 16H12" stroke="#AEAEAE" stroke-width="1.5" stroke-linecap="round"/>
<path d="M8 10C9.10457 10 10 9.10457 10 8C10 6.89543 9.10457 6 8 6C6.89543 6 6 6.89543 6 8C6 9.10457 6.89543 10 8 10Z" stroke="#AEAEAE" stroke-width="1.5"/>
<path d="M17 18C18.1046 18 19 17.1046 19 16C19 14.8954 18.1046 14 17 14C15.8954 14 15 14.8954 15 16C15 17.1046 15.8954 18 17 18Z" stroke="#AEAEAE" stroke-width="1.5"/>
</svg>
