<svg width="24" height="24" viewBox="0 0 24 24" fill="none" xmlns="http://www.w3.org/2000/svg">
<path d="M3.82007 16.9V17.41C3.82007 17.89 4.01076 18.3504 4.3502 18.6899C4.68965 19.0293 5.15002 19.22 5.63007 19.22H6.73007C7.0543 19.222 7.36984 19.1152 7.62627 18.9168C7.88269 18.7184 8.06522 18.4397 8.14467 18.1253C8.22412 17.811 8.19591 17.4791 8.06456 17.1826C7.93321 16.8862 7.70629 16.6423 7.42006 16.49L4.59007 15C4.30681 14.8446 4.08308 14.5997 3.95395 14.3035C3.82481 14.0074 3.79757 13.6767 3.87646 13.3634C3.95536 13.0501 4.13594 12.7718 4.38994 12.5722C4.64393 12.3725 4.95699 12.2627 5.28006 12.26H6.49007C6.95247 12.26 7.39608 12.443 7.72398 12.769C8.05189 13.0951 8.23742 13.5376 8.24007 14" stroke="#F0F0F0" stroke-width="1.31" stroke-linecap="round"/>
<path d="M6 11.37V20.1" stroke="#F0F0F0" stroke-width="1.31" stroke-linecap="round"/>
<path d="M6.48999 8.87C6.89034 7.52541 7.68548 6.33213 8.77228 5.44494C9.85907 4.55776 11.1874 4.0176 12.5849 3.89454C13.9824 3.77148 15.3847 4.07119 16.6098 4.7548C17.8349 5.4384 18.8264 6.47436 19.4555 7.72831C20.0847 8.98225 20.3226 10.3963 20.1383 11.7871C19.954 13.1779 19.356 14.4812 18.422 15.528C17.4879 16.5748 16.2609 17.3168 14.9 17.6577C13.5392 17.9987 12.1072 17.9228 10.79 17.44" stroke="#F0F0F0" stroke-width="1.5" stroke-linecap="round"/>
<path d="M13.1799 8.90002V10.9C13.1811 10.974 13.1977 11.0469 13.2287 11.1141C13.2597 11.1812 13.3044 11.2412 13.3599 11.29L14.7699 12.41" stroke="#F0F0F0" stroke-width="1.5" stroke-linecap="round"/>
</svg>
