<svg width="17" height="17" viewBox="0 0 17 17" fill="none" xmlns="http://www.w3.org/2000/svg">
<path d="M14.4699 8.92579C14.4699 8.92579 13.6433 11.2458 13.2233 12.0258C12.9937 12.3982 12.6686 12.7022 12.2816 12.9062C11.8947 13.1102 11.4602 13.2068 11.0233 13.1858H5.75659V6.65913C6.30326 6.05246 8.36993 3.81246 8.36993 3.81246C8.86326 3.31913 9.32993 2.47913 10.1366 2.99246C10.2578 3.08299 10.3501 3.20682 10.4022 3.34887C10.4542 3.49091 10.4639 3.64503 10.4299 3.79246C10.2433 4.29913 9.84993 5.24579 9.54993 6.00579C9.43659 6.30579 9.70326 6.62579 10.1166 6.62579L13.2488 6.69241C14.7088 6.69241 14.8366 8.13913 14.4699 8.92579Z" stroke="#F0F0F0" stroke-width="0.953333" stroke-linecap="round"/>
<path d="M5.75664 12.8458C5.76289 13.0105 5.73605 13.1748 5.67771 13.329C5.61937 13.4832 5.5307 13.6241 5.41697 13.7435C5.30323 13.8628 5.16673 13.9581 5.01553 14.0238C4.86432 14.0894 4.70149 14.1241 4.53665 14.1258H3.30331C2.96317 14.1119 2.64238 13.9638 2.41122 13.7139C2.18005 13.464 2.05735 13.1327 2.06998 12.7925V6.79247C2.05735 6.45228 2.18005 6.12094 2.41122 5.87103C2.64238 5.62112 2.96317 5.47301 3.30331 5.45914H4.53665C4.84665 5.4664 5.14295 5.58833 5.36829 5.80135C5.59362 6.01437 5.73199 6.30336 5.75664 6.61247V12.8458Z" stroke="#F0F0F0" stroke-width="0.966667" stroke-linecap="round"/>
</svg>
