<svg xmlns="http://www.w3.org/2000/svg" width="169" height="47" viewBox="0 0 169 47" fill="none">
    <path d="M33.9904 18.2726C33.9387 18.2843 33.8849 18.2826 33.8339 18.2677C32.5909 18.0613 31.8716 17.8205 29.9484 17.8205C27.854 17.8205 27.2277 18.081 26.4447 18.2332C26.3664 18.2481 26.2831 18.2578 26.1951 18.2726C26.2631 17.7175 26.3028 17.1524 26.4103 16.6021C26.5132 16.1009 26.8215 15.708 27.2913 15.4868C27.6778 15.3002 28.084 15.1626 28.5445 14.9809C28.7305 14.6075 28.6424 14.0129 29.171 13.7329C29.5722 13.5216 30.0023 13.5117 30.433 13.5559C30.7803 13.5952 31.1571 13.6789 31.3334 14.0128C31.4948 14.3174 31.5584 14.6712 31.6661 15.0053C31.9597 15.1084 32.2582 15.2116 32.5566 15.3148C33.3836 15.5997 33.7849 16.214 33.878 17.0541C33.9219 17.4619 33.9563 17.8697 33.9904 18.2726ZM27.8344 17.6584C27.6386 16.6905 27.9421 15.9192 28.6615 15.2706C27.4379 15.4032 26.6012 16.6514 26.8999 17.8648C27.1933 17.7961 27.4871 17.7321 27.8344 17.6584ZM29.6156 13.7377C29.0333 13.8949 28.6758 14.4452 28.7984 14.9808C28.9346 14.966 29.0724 14.9513 29.2289 14.9365C29.2389 14.4845 29.278 14.062 29.6156 13.7377Z" fill="white"/>
    <path d="M34.8909 25.2099C34.8958 25.0036 34.8227 24.7137 34.6706 24.5269C34.6497 24.4999 34.6216 24.4792 34.5897 24.4671C34.5578 24.4551 34.5231 24.4522 34.4896 24.4587C34.4505 24.4635 34.3965 24.4733 34.3476 24.4831C34.3212 24.488 34.2964 24.4993 34.2753 24.5162C34.2543 24.533 34.2378 24.5548 34.2271 24.5796C34.2165 24.6043 34.212 24.6313 34.2143 24.6583C34.2166 24.6852 34.2253 24.7111 34.2401 24.7338C34.4651 25.0581 34.4798 25.4806 34.3233 25.6919C34.147 25.9276 33.824 25.9817 33.5354 25.9228C33.2026 25.8589 33.0118 25.687 32.9432 25.1662C32.9335 25.0876 32.8256 25.0581 32.7572 25.0978C32.7083 25.1274 32.6496 25.1662 32.5958 25.201C32.5554 25.2257 32.522 25.2602 32.499 25.3016C32.4758 25.3429 32.4636 25.3894 32.4637 25.4369C32.4637 25.6187 32.4783 25.9179 32.5816 26.0967C32.702 26.1257 32.8268 26.169 32.9482 26.2034C33.4571 26.3458 33.9708 26.4835 34.4847 26.2082C34.4896 26.2082 34.4896 26.2034 34.4944 26.2034L34.5791 26.1459C34.7303 25.9621 34.9284 25.6413 34.8909 25.2099ZM34.8909 25.2099C34.8958 25.0036 34.8227 24.7137 34.6706 24.5269C34.6497 24.4999 34.6216 24.4792 34.5897 24.4671C34.5578 24.4551 34.5231 24.4522 34.4896 24.4587C34.4505 24.4635 34.3965 24.4733 34.3476 24.4831C34.3212 24.488 34.2964 24.4993 34.2753 24.5162C34.2543 24.533 34.2378 24.5548 34.2271 24.5796C34.2165 24.6043 34.212 24.6313 34.2143 24.6583C34.2166 24.6852 34.2253 24.7111 34.2401 24.7338C34.4651 25.0581 34.4798 25.4806 34.3233 25.6919C34.147 25.9276 33.824 25.9817 33.5354 25.9228C33.2026 25.8589 33.0118 25.687 32.9432 25.1662C32.9335 25.0876 32.8256 25.0581 32.7572 25.0978C32.7083 25.1274 32.6496 25.1662 32.5958 25.201C32.5554 25.2257 32.522 25.2602 32.499 25.3016C32.4758 25.3429 32.4636 25.3894 32.4637 25.4369C32.4637 25.6187 32.4783 25.9179 32.5816 26.0967C32.702 26.1257 32.8268 26.169 32.9482 26.2034C33.4571 26.3458 33.9708 26.4835 34.4847 26.2082C34.4896 26.2082 34.4896 26.2034 34.4944 26.2034L34.5791 26.1459C34.7303 25.9621 34.9284 25.6413 34.8909 25.2099ZM39.7794 15.3639L39.6229 14.7638L39.0307 14.9506L38.9916 14.9653L38.7421 15.0439C37.4454 15.4375 36.3692 15.9533 35.4585 16.6168C35.1159 16.8672 34.7832 17.1326 34.4602 17.3979C34.4552 17.3586 34.4505 17.3193 34.4456 17.2799C34.323 16.1549 33.7262 15.3834 32.728 15.0445L32.126 14.8382C32.126 14.8332 32.126 14.8283 32.1211 14.8283C32.0477 14.5686 31.9742 14.2976 31.8373 14.0324V14.0225C31.485 13.3544 30.7265 13.2807 30.4768 13.2561C30.3106 13.2561 30.1686 13.2462 30.0364 13.2462C29.596 13.2462 29.2192 13.3347 28.8768 13.5116C28.2748 13.8308 28.1525 14.381 28.0737 14.7448C28.0689 14.7742 28.059 14.8037 28.0543 14.8332C28.015 14.8479 27.9711 14.8626 27.9317 14.8774C27.6136 15.0005 27.3151 15.1132 27.0215 15.2508C26.7034 15.4031 26.4343 15.6144 26.2336 15.8748C26.0255 16.1388 25.883 16.4488 25.8177 16.779C25.7736 16.9901 25.7443 17.2013 25.7149 17.4079C25.4899 17.2211 25.2597 17.0344 25.025 16.8527C23.9489 16.0325 22.6712 15.413 21.1248 14.9562L20.6556 14.8185L20.4354 15.2607C20.4349 15.2644 20.4332 15.2679 20.4304 15.2704C20.416 15.2924 20.403 15.3153 20.3914 15.3389L20.3619 15.3978L20.3473 15.4616C20.0438 16.7199 19.9753 17.9083 20.1325 19.088C20.2889 20.2426 20.6022 21.3972 21.0622 22.5175C21.0767 22.5518 21.0817 22.6256 21.0718 22.6501C20.5819 24.1487 20.3864 26.8658 20.6605 28.3495C20.7831 28.998 21.238 30.015 21.8839 30.7177C23.068 32.0245 24.5753 32.8156 26.3517 33.0612C26.4594 33.076 26.562 33.0858 26.665 33.1005C26.8852 33.1251 27.0955 33.1448 27.2571 33.2037C28.2407 33.5672 29.2292 33.754 30.1933 33.754C31.1719 33.754 32.1507 33.5626 33.1098 33.189C33.1979 33.1547 33.3004 33.1153 33.3789 33.1054H33.4083C34.6365 32.9188 36.0215 32.3734 37.1127 31.6462C38.4884 30.7275 39.3442 29.5925 39.5839 28.3544L39.5888 28.3347L39.5937 28.315C39.8334 26.4185 39.6769 24.4385 39.1288 22.4291C40.1514 19.9282 40.3668 17.619 39.7794 15.3639ZM35.3313 25.6373C35.5368 25.5588 35.7276 25.4556 35.9381 25.4017C36.2659 25.3131 36.5742 25.4899 36.6873 25.7945C36.795 26.0944 36.6482 26.4234 36.3496 26.5758C35.9288 26.7871 35.5619 26.6888 35.3122 26.3297C35.3051 26.3199 35.2951 26.3127 35.2836 26.3092C35.2721 26.3056 35.2598 26.3058 35.2485 26.31C34.9794 26.4377 34.7249 26.5998 34.4462 26.6588C34.0937 26.7324 33.712 26.7865 33.3646 26.7178C32.7675 26.6047 32.1999 26.3297 31.5392 26.5458C31.5299 26.5492 31.5198 26.5499 31.5102 26.5476C31.5004 26.5453 31.4917 26.5402 31.4848 26.5328C31.4781 26.5255 31.4735 26.5164 31.4719 26.5065C31.4704 26.4966 31.4716 26.4865 31.4757 26.4775C31.5878 26.2041 31.8061 26.1148 32.0253 26.075C31.6392 24.6444 32.6717 23.5693 34.2405 23.7507C34.4167 23.7704 34.5977 23.8145 34.7544 23.8883C35.0725 24.0356 35.3563 23.9718 35.7281 23.9669C35.7624 23.9669 35.7917 23.9718 35.8946 23.9767C35.9043 23.9767 35.9092 23.9866 35.9043 23.9915C35.7085 24.2419 35.4983 24.4336 35.4248 24.6204C35.3319 24.861 35.3568 25.3131 35.322 25.6423C35.3264 25.6423 35.3264 25.6373 35.3313 25.6373ZM25.5735 23.8096C26.5278 23.456 27.668 23.8982 28.0497 24.7283C28.2404 25.1412 28.2357 25.5686 28.1475 26.001C28.1452 26.013 28.1406 26.0245 28.1339 26.0349C28.2162 26.0507 28.2964 26.0756 28.3734 26.1091C28.5055 26.1637 28.7257 26.3155 28.7109 26.4529C28.7062 26.5169 28.4223 26.4137 28.3831 26.4039C27.8987 26.2808 27.4977 26.4185 27.0374 26.5512C26.2299 26.7871 25.5645 26.3744 25.0164 26.2368C24.9773 26.2269 24.899 26.2613 24.8646 26.2859C24.5458 26.4921 24.3795 26.6642 23.895 26.5708C23.5428 26.4776 23.4204 26.0895 23.5136 25.7799C23.6067 25.4753 23.91 25.3278 24.2478 25.3572C24.4425 25.3765 24.6284 25.4232 24.7464 25.4846C24.7092 25.3151 24.7258 24.7953 24.7419 24.6155C24.7566 24.4336 24.4337 24.2274 24.2869 24.0406C24.2721 24.0209 24.2672 24.0014 24.277 23.9817C24.2804 23.9731 24.2866 23.9659 24.2947 23.9614C24.3027 23.957 24.3121 23.9554 24.3211 23.957C24.7612 24.0799 25.1576 23.962 25.5735 23.8096ZM34.6706 24.5269C34.6497 24.4999 34.6216 24.4792 34.5897 24.4671C34.5578 24.4551 34.5231 24.4522 34.4896 24.4587C34.4505 24.4635 34.3965 24.4733 34.3476 24.4831C34.3212 24.488 34.2964 24.4993 34.2753 24.5162C34.2543 24.533 34.2378 24.5548 34.2271 24.5796C34.2165 24.6043 34.212 24.6313 34.2143 24.6583C34.2166 24.6852 34.2253 24.7111 34.2401 24.7338C34.4651 25.0581 34.4798 25.4806 34.3233 25.6919C34.147 25.9276 33.824 25.9817 33.5354 25.9228C33.2026 25.8589 33.0118 25.687 32.9432 25.1662C32.9335 25.0876 32.8256 25.0581 32.7572 25.0978C32.7083 25.1274 32.6496 25.1662 32.5958 25.201C32.5554 25.2257 32.522 25.2602 32.499 25.3016C32.4758 25.3429 32.4636 25.3894 32.4637 25.4369C32.4637 25.6187 32.4783 25.9179 32.5816 26.0967C32.702 26.1257 32.8268 26.169 32.9482 26.2034C33.4571 26.3458 33.9708 26.4835 34.4847 26.2082C34.4896 26.2082 34.4896 26.2034 34.4944 26.2034L34.5791 26.1459C34.7298 25.9637 34.928 25.6427 34.8903 25.2115C34.8958 25.004 34.8224 24.7137 34.6706 24.5269Z" fill="#060405"/>
    <path d="M34.891 25.21C34.8958 25.0036 34.8229 24.7137 34.6707 24.5271C34.6498 24.5001 34.6217 24.4794 34.5898 24.4673C34.5578 24.4552 34.5232 24.4522 34.4897 24.4587C34.4506 24.4637 34.3967 24.4733 34.3477 24.4832C34.3212 24.4881 34.2965 24.4995 34.2754 24.5163C34.2543 24.5331 34.2379 24.5548 34.2271 24.5795C34.2165 24.6044 34.2121 24.6314 34.2144 24.6583C34.2167 24.6852 34.2256 24.7111 34.2402 24.7338C34.4652 25.0581 34.4799 25.4807 34.3234 25.6919C34.1471 25.9278 33.8241 25.9817 33.5355 25.9229C33.2027 25.8589 33.0119 25.687 32.9433 25.1662C32.9336 25.0876 32.8259 25.0581 32.7573 25.0979C32.7084 25.1274 32.6497 25.1662 32.5959 25.2011C32.5555 25.2257 32.5222 25.2603 32.499 25.3016C32.4758 25.343 32.4638 25.3896 32.4638 25.4369C32.4638 25.6187 32.4784 25.9179 32.5817 26.0967C32.7021 26.1257 32.8269 26.169 32.9483 26.2033C33.4572 26.3458 33.9709 26.4835 34.4848 26.2082C34.4897 26.2082 34.4897 26.2033 34.4945 26.2033L34.5792 26.146C34.7304 25.9621 34.9286 25.6413 34.891 25.21ZM34.891 25.21C34.8958 25.0036 34.8229 24.7137 34.6707 24.5271C34.6498 24.5001 34.6217 24.4794 34.5898 24.4673C34.5578 24.4552 34.5232 24.4522 34.4897 24.4587C34.4506 24.4637 34.3967 24.4733 34.3477 24.4832C34.3212 24.4881 34.2965 24.4995 34.2754 24.5163C34.2543 24.5331 34.2379 24.5548 34.2271 24.5795C34.2165 24.6044 34.2121 24.6314 34.2144 24.6583C34.2167 24.6852 34.2256 24.7111 34.2402 24.7338C34.4652 25.0581 34.4799 25.4807 34.3234 25.6919C34.1471 25.9278 33.8241 25.9817 33.5355 25.9229C33.2027 25.8589 33.0119 25.687 32.9433 25.1662C32.9336 25.0876 32.8259 25.0581 32.7573 25.0979C32.7084 25.1274 32.6497 25.1662 32.5959 25.2011C32.5555 25.2257 32.5222 25.2603 32.499 25.3016C32.4758 25.343 32.4638 25.3896 32.4638 25.4369C32.4638 25.6187 32.4784 25.9179 32.5817 26.0967C32.7021 26.1257 32.8269 26.169 32.9483 26.2033C33.4572 26.3458 33.9709 26.4835 34.4848 26.2082C34.4897 26.2082 34.4897 26.2033 34.4945 26.2033L34.5792 26.146C34.7304 25.9621 34.9286 25.6413 34.891 25.21ZM39.2026 15.5211C39.0949 15.5555 39.002 15.585 38.9139 15.6146C37.798 15.9534 36.7411 16.4153 35.7967 17.1031C35.1655 17.5601 34.5782 18.0809 33.9713 18.5721C33.9623 18.4743 33.9532 18.3766 33.9441 18.2788C33.9169 17.9708 33.8919 17.6634 33.8586 17.3538C33.7655 16.5088 33.3692 15.8946 32.5373 15.6147C32.2387 15.5114 31.9403 15.4082 31.6466 15.3051C31.539 14.971 31.4704 14.6172 31.314 14.3125C31.1377 13.9785 30.7609 13.8901 30.4135 13.8556C30.2863 13.8458 30.1638 13.8359 30.0367 13.8359C29.8457 13.8338 29.6554 13.8578 29.4709 13.9072C29.3602 13.9376 29.253 13.9797 29.151 14.0326C29.1014 14.0586 29.0546 14.0895 29.0109 14.1248C28.6372 14.4285 28.692 14.944 28.5245 15.2805C28.5079 15.2874 28.4913 15.2933 28.4751 15.3002C28.2676 15.3823 28.07 15.4554 27.881 15.5292C27.6697 15.6113 27.4684 15.6932 27.2724 15.7861C26.807 16.008 26.4937 16.4005 26.3908 16.9017C26.2985 17.3529 26.2588 17.8106 26.2098 18.2701C26.2098 18.2729 26.2098 18.2758 26.2089 18.2788C26.1985 18.3766 26.1875 18.4743 26.1756 18.5721C25.6765 18.1545 25.1871 17.7222 24.6685 17.3243C23.5526 16.4742 22.295 15.9192 20.9591 15.526C20.9394 15.5653 20.9248 15.585 20.9151 15.6047C20.6458 16.7298 20.5578 17.8648 20.7094 19.0144C20.8612 20.1444 21.1646 21.2401 21.6001 22.2971C21.6637 22.4543 21.6785 22.6754 21.6246 22.8376C21.1548 24.2814 20.9884 26.9149 21.233 28.2463C21.3407 28.8206 21.7714 29.7351 22.3092 30.3245C23.4153 31.5429 24.7951 32.2554 26.4246 32.4813C26.7672 32.5306 27.1294 32.5361 27.4524 32.6534C28.3676 32.9875 29.2777 33.1644 30.1879 33.1644C31.0883 33.1644 31.9886 32.9974 32.8939 32.6435C33.031 32.5889 33.1729 32.5404 33.3148 32.5256C35.4435 32.2013 38.5362 30.6291 39.0011 28.2463C39.2556 26.2516 39.0353 24.2715 38.4971 22.3996C39.4077 20.2574 39.8334 17.9531 39.2026 15.5211ZM34.7543 23.8883C35.0724 24.0357 35.3563 23.9719 35.7281 23.9669C35.7623 23.9669 35.7918 23.9719 35.8945 23.9768C35.9042 23.9768 35.9091 23.9866 35.9042 23.9916C35.7085 24.242 35.4982 24.4336 35.4247 24.6205C35.3318 24.861 35.3567 25.3132 35.3219 25.6423C35.3269 25.6423 35.3269 25.6374 35.3318 25.6374C35.5373 25.5589 35.7281 25.4557 35.9386 25.4017C36.2665 25.3132 36.5747 25.4899 36.6878 25.7945C36.7955 26.0944 36.6487 26.4234 36.3501 26.5758C35.9293 26.7871 35.5624 26.6889 35.3127 26.3297C35.3056 26.3199 35.2956 26.3127 35.2841 26.3091C35.2726 26.3057 35.2603 26.306 35.249 26.31C34.9799 26.4377 34.7254 26.5998 34.4467 26.6587C34.0942 26.7325 33.7125 26.7867 33.3651 26.7178C32.768 26.6048 32.2004 26.3297 31.5398 26.5459C31.5304 26.5494 31.5203 26.5499 31.5107 26.5476C31.5009 26.5453 31.4922 26.5402 31.4853 26.533C31.4786 26.5256 31.474 26.5164 31.4724 26.5065C31.4709 26.4967 31.4722 26.4867 31.4762 26.4775C31.5883 26.2041 31.8066 26.1149 32.0258 26.075C31.6397 24.6444 32.6722 23.5694 34.241 23.7508C34.4163 23.7705 34.5978 23.8147 34.7543 23.8883ZM25.5735 23.8098C26.5278 23.456 27.6679 23.8982 28.0498 24.7285C28.2404 25.1412 28.2357 25.5685 28.1476 26.0011C28.1451 26.0132 28.1406 26.0247 28.1338 26.0349C28.2162 26.0507 28.2965 26.0756 28.3734 26.109C28.5056 26.1637 28.7258 26.3155 28.711 26.453C28.7063 26.5169 28.4224 26.4137 28.3832 26.4039C27.8988 26.2808 27.4978 26.4185 27.0375 26.5514C26.23 26.7871 25.5646 26.3744 25.0165 26.2368C24.9774 26.2271 24.8991 26.2613 24.8647 26.286C24.5459 26.4923 24.3797 26.6642 23.8952 26.5709C23.5429 26.4776 23.4204 26.0895 23.5137 25.78C23.6068 25.4754 23.9101 25.3278 24.2478 25.3574C24.4426 25.3765 24.6285 25.4232 24.7465 25.4846C24.7093 25.3151 24.7259 24.7953 24.7419 24.6155C24.7567 24.4336 24.4337 24.2274 24.2869 24.0406C24.2722 24.0209 24.2673 24.0014 24.277 23.9817C24.2805 23.9731 24.2868 23.966 24.2948 23.9614C24.3028 23.957 24.3121 23.9554 24.3213 23.9571C24.7613 24.08 25.1576 23.962 25.5735 23.8098ZM34.3234 25.6919C34.1471 25.9278 33.8241 25.9817 33.5355 25.9229C33.2027 25.8589 33.0119 25.687 32.9433 25.1662C32.9336 25.0876 32.8259 25.0581 32.7573 25.0979C32.7084 25.1274 32.6497 25.1662 32.5959 25.2011C32.5555 25.2257 32.5222 25.2603 32.499 25.3016C32.4758 25.343 32.4638 25.3896 32.4638 25.4369C32.4638 25.6187 32.4784 25.9179 32.5817 26.0967C32.7021 26.1257 32.8269 26.169 32.9483 26.2033C33.4572 26.3458 33.9709 26.4835 34.4848 26.2082C34.4897 26.2082 34.4897 26.2033 34.4945 26.2033L34.5792 26.146C34.7298 25.9637 34.9286 25.6414 34.891 25.21C34.8958 25.0036 34.8229 24.7137 34.6707 24.5271C34.6498 24.5001 34.6217 24.4794 34.5898 24.4673C34.5578 24.4552 34.5232 24.4522 34.4897 24.4587C34.4506 24.4637 34.3967 24.4733 34.3477 24.4832C34.3212 24.4881 34.2965 24.4995 34.2754 24.5163C34.2543 24.5331 34.2379 24.5548 34.2271 24.5795C34.2165 24.6044 34.2121 24.6314 34.2144 24.6583C34.2167 24.6852 34.2256 24.7111 34.2402 24.7338C34.4657 25.0565 34.4799 25.4807 34.3234 25.6919Z" fill="white"/>
    <path d="M39.0119 15.806C39.5794 16.9606 38.9043 20.97 37.9646 22.0656C37.2447 21.1025 35.6738 19.9181 35.6738 19.9181C35.6738 19.9181 36.3882 17.4571 39.0119 15.806Z" fill="#fff"/>
    <path d="M22.1089 22.0899C21.9621 21.7264 21.8056 21.3531 21.6636 20.9747C21.3358 20.115 21.0665 19.2305 20.9442 18.3166C20.8463 17.5601 20.9149 16.8127 21.135 16.0074C22.2606 16.5817 23.219 17.9581 23.9537 18.9358C24.1348 19.1715 24.2816 19.4369 24.4087 19.633C23.4696 20.3409 22.75 21.1468 22.1089 22.0899Z" fill="#fff"/>
    <path d="M28.3736 26.1087C28.2967 26.0754 28.2165 26.0505 28.1342 26.0347C28.1409 26.0243 28.1455 26.0128 28.1479 26.0007C28.236 25.5683 28.2409 25.141 28.0501 24.7281C27.6687 23.8978 26.5281 23.4558 25.5738 23.8094C25.1579 23.9618 24.7616 24.0797 24.3206 23.9568C24.3116 23.9552 24.3022 23.9568 24.2941 23.9612C24.2861 23.9657 24.2798 23.9729 24.2765 23.9815C24.2667 24.001 24.2715 24.0207 24.2863 24.0403C24.4331 24.2272 24.756 24.4334 24.7414 24.6153C24.7254 24.795 24.7088 25.3148 24.7459 25.4844C24.628 25.423 24.442 25.3763 24.2472 25.357C23.9095 25.3276 23.6061 25.4751 23.5132 25.7797C23.4201 26.0892 23.5425 26.477 23.8946 26.5706C24.3791 26.664 24.5454 26.4919 24.8635 26.2857C24.8978 26.2611 24.976 26.2267 25.0151 26.2366C25.5634 26.3741 26.2288 26.7869 27.0362 26.551C27.4963 26.4183 27.8974 26.2808 28.3819 26.4037C28.421 26.4133 28.7049 26.5167 28.7098 26.4527C28.7251 26.3153 28.505 26.1629 28.3736 26.1087ZM27.5367 25.9959C27.5139 26.0266 27.4884 26.0552 27.4603 26.0812C27.1501 26.1408 26.6779 26.2625 26.4161 26.2366C26.2106 26.2121 25.7653 26.1038 25.5647 26.0156C25.542 26.0056 25.5187 25.9949 25.4941 25.9826C25.2921 25.6897 25.2059 25.3552 25.2216 24.9837C25.2315 24.7478 25.3243 24.566 25.525 24.4231C25.5468 24.409 25.573 24.4037 25.5985 24.4084C25.6916 24.4231 25.7844 24.4428 25.8922 24.4631C25.9087 24.4662 25.924 24.4735 25.9369 24.4845C25.9498 24.4954 25.9597 24.5093 25.9655 24.5252C25.9714 24.541 25.9731 24.5579 25.9705 24.5746C25.968 24.5913 25.9612 24.6071 25.9508 24.6203C25.7159 24.9151 25.662 25.2246 25.8828 25.5636C25.9655 25.6921 26.0873 25.7906 26.2299 25.8445C26.3727 25.8985 26.5288 25.9052 26.6755 25.8635C27.0523 25.76 27.213 25.5045 27.2429 25.1405C27.2442 25.1239 27.2496 25.1079 27.2588 25.0941C27.268 25.0803 27.2806 25.0691 27.2955 25.0616C27.3102 25.0542 27.3268 25.0507 27.3433 25.0517C27.3599 25.0526 27.376 25.0577 27.3899 25.0668C27.4579 25.1109 27.6296 25.2682 27.659 25.3665C27.7024 25.5192 27.6298 25.8485 27.5367 25.9959Z" fill="#060405"/>
    <path d="M36.6868 25.7946C36.5743 25.49 36.266 25.3132 35.9376 25.4018C35.7272 25.4557 35.5363 25.5589 35.3307 25.6374C35.3259 25.6374 35.3259 25.6424 35.321 25.6424C35.3552 25.3132 35.3307 24.8611 35.4238 24.6205C35.4972 24.4338 35.7076 24.2421 35.9033 23.9916C35.9082 23.9867 35.9033 23.9769 35.8935 23.9769C35.7908 23.9719 35.7614 23.967 35.7272 23.967C35.3552 23.9719 35.0714 24.0354 34.7534 23.8884C34.5967 23.8148 34.4157 23.7705 34.2395 23.7508C32.6706 23.5695 31.6378 24.6446 32.0242 26.0751C31.8049 26.1151 31.5868 26.2039 31.4747 26.4776C31.4705 26.4867 31.4692 26.4969 31.471 26.5066C31.4725 26.5166 31.477 26.5256 31.4838 26.5329C31.4906 26.5403 31.4995 26.5454 31.5091 26.5477C31.5188 26.55 31.529 26.5493 31.5383 26.5459C32.1989 26.3298 32.7665 26.6048 33.3636 26.7179C33.7111 26.7862 34.0927 26.7326 34.4451 26.6589C34.7239 26.5999 34.9784 26.4378 35.2475 26.3101C35.2588 26.306 35.2712 26.3057 35.2826 26.3093C35.2941 26.3129 35.3041 26.32 35.3111 26.3298C35.5609 26.6883 35.9278 26.7867 36.3486 26.5759C36.6477 26.4235 36.7946 26.0945 36.6868 25.7946ZM32.9483 26.2025C32.8268 26.1682 32.7021 26.1248 32.5816 26.0958C32.4784 25.917 32.4638 25.6174 32.4638 25.436C32.4638 25.3887 32.4758 25.3421 32.499 25.3007C32.5222 25.2595 32.5556 25.2248 32.5958 25.2002C32.6497 25.1659 32.7084 25.1265 32.7572 25.097C32.8254 25.0578 32.9335 25.0872 32.9433 25.1653C33.0114 25.6861 33.2022 25.858 33.5355 25.922C33.8241 25.9809 34.147 25.9269 34.3233 25.691C34.4799 25.4798 34.4651 25.0572 34.2401 24.7329C34.2255 24.7102 34.2166 24.6843 34.2143 24.6574C34.212 24.6306 34.2165 24.6035 34.2271 24.5787C34.2378 24.5539 34.2543 24.5322 34.2754 24.5154C34.2964 24.4986 34.3213 24.4872 34.3477 24.4823C34.3967 24.4724 34.4505 24.4628 34.4896 24.4578C34.5231 24.4513 34.5578 24.4543 34.5897 24.4664C34.6217 24.4785 34.6497 24.4992 34.6706 24.5262C34.8225 24.7128 34.8958 25.0027 34.8909 25.2091C34.9286 25.6404 34.7304 25.9611 34.5797 26.1435L34.4951 26.201C34.4902 26.201 34.4902 26.2059 34.4853 26.2059C33.9709 26.4826 33.4571 26.3449 32.9483 26.2025Z" fill="#060405"/>
    <path d="M27.536 25.9959C27.5132 26.0268 27.4877 26.0554 27.4598 26.0814C27.1494 26.1409 26.6774 26.2627 26.4155 26.2366C26.2099 26.2121 25.7646 26.104 25.564 26.0156C25.5413 26.0058 25.518 25.995 25.4935 25.9826C25.2914 25.6898 25.2052 25.3553 25.2211 24.9839C25.2308 24.748 25.3238 24.5661 25.5244 24.4232C25.5461 24.409 25.5723 24.4037 25.5978 24.4084C25.6908 24.4232 25.7837 24.4429 25.8915 24.4632C25.908 24.4664 25.9234 24.4737 25.9362 24.4846C25.9491 24.4954 25.959 24.5095 25.9648 24.5253C25.9707 24.541 25.9724 24.5581 25.9698 24.5747C25.9674 24.5914 25.9605 24.6071 25.9502 24.6205C25.7152 24.9151 25.6613 25.2246 25.8821 25.5637C25.965 25.6923 26.0866 25.7906 26.2294 25.8446C26.372 25.8985 26.5281 25.9052 26.6748 25.8636C27.0523 25.7601 27.213 25.5045 27.2429 25.1406C27.2442 25.124 27.2497 25.1081 27.2588 25.0941C27.268 25.0803 27.2806 25.0691 27.2955 25.0618C27.3102 25.0543 27.3269 25.0509 27.3433 25.0517C27.3599 25.0527 27.376 25.0579 27.3899 25.0669C27.4579 25.1111 27.6296 25.2683 27.659 25.3667C27.7024 25.5193 27.629 25.8485 27.536 25.9959Z" fill="white"/>
    <path d="M33.3737 28.4724C33.2417 28.4724 33.1829 28.3052 33.2856 28.2263C33.3247 28.1968 33.3786 28.1771 33.4276 28.1579C34.0246 27.9368 34.6216 27.9516 35.2234 28.1481C35.5562 28.2562 35.894 28.3594 36.2365 28.4078C36.4468 28.4373 36.7503 28.5111 36.8873 28.3439C36.9949 28.2161 36.6867 28 36.5496 27.9115C36.1434 27.6562 35.6778 27.602 35.2185 27.5382C34.5726 27.4546 33.9517 27.5137 33.3591 27.8035C33.3247 27.8232 33.2319 27.8581 33.2172 27.8035C33.2123 27.7789 33.2563 27.7298 33.3101 27.6904C34.2791 27.0419 35.3116 26.752 36.4567 27.0615C36.8399 27.1605 37.1782 27.3877 37.4158 27.7052C37.7926 28.2065 37.6359 28.8057 37.0439 29.0219C36.4853 29.2282 35.9184 29.1841 35.3752 28.9535C35.0278 28.8062 34.6999 28.6095 34.3476 28.5065C34.0834 28.4329 33.7847 28.4819 33.501 28.477C33.4586 28.4731 33.4162 28.4715 33.3737 28.4724Z" fill="#060405"/>
    <path d="M26.9878 27.8188C26.9825 27.8305 26.9729 27.8395 26.961 27.8441C26.9491 27.8487 26.936 27.8483 26.9242 27.8432C25.8282 27.3421 24.7368 27.4058 23.6551 27.8727C23.5769 27.9071 23.4985 27.9613 23.4153 28.0103C23.2635 28.1037 23.1999 28.2856 23.4301 28.3691C23.4301 28.3691 23.4888 28.3837 23.5229 28.3935C23.5425 28.3984 23.567 28.4034 23.5865 28.4083C23.9634 28.4722 24.2961 28.3787 24.649 28.2363C25.2706 27.9857 25.9066 27.8875 26.5576 28.0889C26.6802 28.1283 26.7973 28.202 26.9146 28.2659C26.9302 28.2742 26.9428 28.2871 26.9507 28.3031C26.9586 28.3189 26.9615 28.3367 26.9589 28.3543C26.9564 28.3701 26.9497 28.3849 26.9393 28.397C26.9289 28.409 26.9153 28.418 26.9002 28.4227C26.8951 28.4227 26.8951 28.4227 26.8903 28.4276C26.8075 28.4576 26.7184 28.4661 26.6315 28.452C26.0394 28.3392 25.5158 28.5504 25.0068 28.8305C24.5322 29.0903 24.0282 29.1892 23.4948 29.1105C23.3406 29.0868 23.1896 29.0456 23.0447 28.9875C22.57 28.7811 22.4035 28.1914 22.6873 27.7541C23.0054 27.2727 23.4948 27.0515 24.0575 26.9681C25.0363 26.8206 25.9317 27.0565 26.7588 27.5921C26.8371 27.6411 26.9007 27.71 26.9693 27.7689C26.9774 27.774 26.9835 27.7814 26.9871 27.7903C26.9905 27.7991 26.9901 27.8096 26.9878 27.8188Z" fill="#060405"/>
    <path d="M33.8486 21.8595C33.9122 21.8644 33.9712 21.9038 33.9855 21.9676C34.0003 22.0462 33.9416 22.11 33.8584 22.1589C33.3396 22.4734 32.9237 22.8813 32.6204 23.4118C32.5078 23.6085 32.2337 23.6526 32.038 23.5349C31.8619 23.4268 31.8079 23.2008 31.9058 22.9944C32.2092 22.3553 33.1244 21.8296 33.8486 21.8595Z" fill="#060405"/>
    <path d="M26.1216 21.933C26.1263 21.8987 26.1607 21.8741 26.1803 21.8593C26.2342 21.8299 26.3174 21.7857 26.4255 21.7954C27.1399 21.8544 27.7517 22.2425 28.1626 22.8763C28.3389 23.1516 28.3046 23.4168 28.0796 23.5397C27.8445 23.6674 27.5902 23.5593 27.4432 23.2841C27.1595 22.7683 26.7533 22.3703 26.2101 22.1049C26.1782 22.0906 26.1521 22.0657 26.1362 22.0345C26.1202 22.0032 26.1147 21.9674 26.1216 21.933Z" fill="#060405"/>
    <path d="M30.1147 26.851C30.5259 26.8558 30.8977 27.0032 30.9613 27.2734C30.9639 27.2841 30.9628 27.2951 30.9583 27.3049C30.954 27.3148 30.9464 27.323 30.937 27.3282C30.7511 27.4559 30.4721 27.5195 30.4622 27.8637C30.4721 28.2272 30.6335 28.5222 30.8734 28.7824C31.4117 29.3722 32.0968 29.5244 32.8551 29.431C32.9678 29.4163 33.0803 29.382 33.1928 29.3966C33.2418 29.4015 33.2564 29.4702 33.2173 29.4949C32.8992 29.7209 32.542 29.8142 32.175 29.7603C31.808 29.7063 31.4213 29.6275 31.0888 29.4557C30.7999 29.3033 30.5944 29.0282 30.3253 28.8512C30.2176 28.7828 30.0023 28.7677 29.9045 28.8317C29.6156 29.023 29.4005 29.3229 29.092 29.485C28.7788 29.6472 28.4167 29.7061 28.0694 29.7553C27.6632 29.8142 27.2864 29.711 26.9536 29.4801C26.9433 29.4728 26.9357 29.4623 26.932 29.4502C26.9282 29.4382 26.9287 29.4251 26.9331 29.4133C26.9377 29.4015 26.946 29.3914 26.9567 29.3848C26.9675 29.3784 26.9802 29.3755 26.9927 29.3771C27.1005 29.3917 27.2081 29.4064 27.3207 29.4163C28.0698 29.5146 28.7593 29.3966 29.2829 28.8021C29.4445 28.6153 29.8017 28.2765 29.8114 27.8588C29.8163 27.5296 29.5526 27.451 29.3465 27.3529C29.3335 27.3478 29.3227 27.338 29.3164 27.3253C29.3101 27.3127 29.3087 27.2982 29.3123 27.2845C29.3805 27.0242 29.7087 26.8459 30.1147 26.851Z" fill="#060405"/>
    <path d="M31.4654 21.2008C31.4165 21.466 31.3774 21.6873 31.3383 21.9084C31.2942 22.1835 31.2354 22.4538 30.9222 22.6057C30.8439 22.5025 30.7803 22.4188 30.7216 22.3353H29.1948C29.131 22.409 29.0821 22.4632 29.0283 22.522C28.9892 22.4975 28.9353 22.4828 28.9256 22.4582C28.8766 22.306 28.8375 22.1487 28.7984 21.9915C28.7249 21.7114 28.6565 21.431 28.5781 21.1268H29.4541C29.268 20.8222 29.1214 20.5715 28.9501 20.2915C29.0284 20.2719 29.1068 20.2423 29.1851 20.2368C29.6059 20.2124 30.0268 20.173 30.4476 20.1779C30.614 20.1779 30.7803 20.2762 31.0006 20.3449C30.8389 20.5522 30.7313 20.6898 30.5991 20.8568H29.6057C29.5513 20.9404 29.5128 20.9993 29.4344 21.1173C29.9043 21.0627 30.3251 21.019 30.7461 20.96C31.0739 20.911 31.2402 20.96 31.4654 21.2008ZM30.1196 22.0758C30.3692 22.061 30.5993 22.0513 30.8341 22.0413C30.8831 21.9332 30.9272 21.8351 30.9809 21.7073C30.6875 21.7318 30.4426 21.7564 30.1979 21.781C30.1735 21.8789 30.149 21.9628 30.1196 22.0758ZM30.4281 20.3757C30.1001 20.4053 29.831 20.4305 29.552 20.4543V20.6853C29.8261 20.6608 30.0855 20.6411 30.3546 20.6169C30.3788 20.5522 30.3937 20.4936 30.4281 20.3757ZM29.8161 22.095C29.8015 21.987 29.7916 21.9084 29.7819 21.8149C29.547 21.8248 29.3267 21.8346 29.092 21.8493C29.1066 21.9574 29.1165 22.036 29.1262 22.1443C29.3562 22.1246 29.5814 22.1098 29.8161 22.095ZM30.9024 21.2063C30.653 21.226 30.4132 21.2455 30.1533 21.2652C30.2214 21.3636 30.2759 21.4373 30.3294 21.5208C30.5546 21.5011 30.7698 21.4814 31.0146 21.457C30.9711 21.3482 30.9417 21.2849 30.9024 21.2063ZM29.0529 21.6479C29.3117 21.6135 29.5421 21.589 29.7868 21.5546C29.777 21.476 29.7673 21.4121 29.7575 21.3285C29.503 21.363 29.268 21.3969 29.0137 21.4367C29.0333 21.5202 29.0382 21.5743 29.0529 21.6479Z" fill="#060405"/>
    <path d="M31.9938 19.6777C31.715 19.9677 31.2206 20.0605 30.9907 19.8545C31.0494 19.7612 31.1133 19.6632 31.2206 19.4855C30.3545 19.5443 29.5519 19.5984 28.764 19.6477C28.4802 20.2028 28.4263 20.2421 28.1375 20.0505C28.2645 19.7815 28.402 19.5009 28.5342 19.2209C28.5574 19.1969 28.5819 19.174 28.6074 19.1526C28.6466 19.2312 28.6808 19.3097 28.7053 19.359H29.826C29.7034 19.2018 29.6106 19.0788 29.5079 18.9512C29.8309 18.8381 30.1441 19.0051 30.2371 19.334C30.5062 19.2995 30.7753 19.2603 31.0494 19.2258C31.4457 19.1815 31.8176 19.3584 31.9938 19.6777Z" fill="#060405"/>
    <path d="M30.8935 19.9528C30.2426 20.021 29.6507 20.1247 28.99 20.0461C29.4149 19.7021 30.6334 19.6137 30.8935 19.9528Z" fill="#060405"/>
    <path d="M27.8 17.9434C27.4526 18.0219 27.159 18.0858 26.8654 18.1497C26.5669 16.9361 27.4036 15.6887 28.627 15.5555C27.9077 16.204 27.6042 16.9705 27.8 17.9434Z" fill="#060405"/>
    <path d="M29.5815 14.0226C29.2438 14.3469 29.2044 14.7695 29.1947 15.2215C29.0383 15.2363 28.9013 15.2508 28.7642 15.2656C28.6419 14.7252 28.9991 14.1749 29.5815 14.0226Z" fill="#060405"/>
    <path d="M50.7845 29.7329C49.6952 29.7329 48.7925 29.5303 48.0767 29.1249C47.3783 28.7389 46.8115 28.1475 46.4508 27.4288C46.0835 26.7027 45.8824 25.8554 45.8476 24.887C45.8357 24.3979 45.8298 23.873 45.8298 23.3123C45.8298 22.7517 45.8357 22.2152 45.8476 21.7028C45.8833 20.7378 46.0843 19.8915 46.4508 19.164C46.8115 18.445 47.3782 17.8536 48.0767 17.4676C48.7918 17.0604 49.6943 16.8568 50.7845 16.8568C51.5147 16.843 52.2417 16.9577 52.9331 17.1962C53.4994 17.3943 54.0215 17.7042 54.4689 18.1082C54.8609 18.467 55.178 18.9018 55.4014 19.387C55.6111 19.8452 55.7314 20.3403 55.7559 20.845C55.7632 20.8945 55.7579 20.9449 55.7407 20.9919C55.7235 21.0388 55.695 21.0805 55.6576 21.1131C55.5829 21.183 55.4843 21.2211 55.3826 21.2192H54.403C54.3038 21.2218 54.2066 21.1905 54.127 21.1305C54.0369 21.0468 53.9776 20.9347 53.9587 20.8125C53.7601 19.881 53.3854 19.2422 52.8347 18.8963C52.2841 18.5503 51.5947 18.377 50.7665 18.3764C49.8192 18.3764 49.0675 18.6478 48.5113 19.1908C47.9552 19.7337 47.6537 20.6011 47.6072 21.7929C47.5704 22.7744 47.5704 23.7758 47.6072 24.7969C47.6555 25.9903 47.9575 26.8575 48.5136 27.399C49.0698 27.9404 49.8215 28.2115 50.7688 28.2124C51.5967 28.2124 52.2862 28.0394 52.8369 27.6938C53.3876 27.3481 53.7637 26.7119 53.9649 25.7851C53.9841 25.6628 54.0434 25.5508 54.1333 25.467C54.2101 25.4052 54.3049 25.3709 54.403 25.3694H55.3795C55.4812 25.3677 55.5797 25.4056 55.6545 25.4755C55.6917 25.5083 55.7202 25.5501 55.7372 25.597C55.7543 25.644 55.7592 25.6944 55.7517 25.7439C55.7272 26.2482 55.6068 26.7428 55.3971 27.2008C55.1741 27.6859 54.857 28.1206 54.4647 28.479C54.0179 28.8837 53.4957 29.1937 52.9288 29.391C52.2391 29.6303 51.5135 29.746 50.7845 29.7329Z" fill="#fff"/>
    <path d="M58.5447 29.5539C58.489 29.5577 58.4333 29.5492 58.3811 29.5292C58.3289 29.5092 58.2816 29.4783 58.2421 29.4384C58.1705 29.3574 58.1331 29.2512 58.1377 29.1425V17.4648C58.1312 17.3507 58.1688 17.2386 58.2421 17.1519C58.2815 17.1121 58.3289 17.081 58.3809 17.0612C58.433 17.0412 58.4887 17.0327 58.5443 17.0363H62.8768C64.2145 17.0363 65.2739 17.352 66.0552 17.9832C66.8364 18.6144 67.2272 19.5502 67.2273 20.7906C67.2273 21.7095 66.9994 22.4579 66.5436 23.0354C66.0671 23.6274 65.4171 24.05 64.6877 24.2421L67.4228 28.9999C67.4554 29.0602 67.4738 29.1274 67.4762 29.1961C67.4759 29.2437 67.4655 29.2907 67.4457 29.334C67.4258 29.3771 67.397 29.4155 67.3613 29.4464C67.2922 29.5144 67.1995 29.5524 67.1031 29.5525H66.2511C66.1699 29.5597 66.0883 29.549 66.0115 29.5213C65.9349 29.4936 65.865 29.4494 65.8065 29.3918C65.7172 29.2914 65.6344 29.1851 65.5589 29.0737L62.984 24.5289H59.8767V29.1425C59.8785 29.1973 59.8691 29.2519 59.8492 29.3028C59.8291 29.3537 59.799 29.3998 59.7606 29.4384C59.719 29.4785 59.6697 29.5094 59.6157 29.5294C59.5617 29.5492 59.5043 29.5575 59.447 29.5539H58.5447ZM59.8767 23.0094H62.8042C63.692 23.0094 64.3542 22.8214 64.7905 22.4452C65.2269 22.069 65.4461 21.5117 65.4482 20.7731C65.4482 20.0463 65.2321 19.4922 64.8 19.1105C64.3679 18.7288 63.7019 18.5379 62.8019 18.5378H59.8749L59.8767 23.0094Z" fill="#fff"/>
    <path d="M73.1876 29.4937C73.1336 29.4957 73.0796 29.4865 73.0292 29.4665C72.9788 29.4466 72.9328 29.4166 72.8943 29.3781C72.8559 29.3397 72.8258 29.2937 72.8059 29.243C72.7859 29.1922 72.7764 29.1379 72.7781 29.0833V24.8619L68.499 17.5651C68.4863 17.5292 68.4748 17.4941 68.4634 17.4592C68.451 17.4187 68.445 17.3764 68.4456 17.334C68.4452 17.2873 68.4542 17.2408 68.4722 17.1979C68.4901 17.1549 68.5166 17.1159 68.5501 17.0837C68.5824 17.0498 68.621 17.0228 68.664 17.0045C68.707 16.9864 68.7531 16.9773 68.7996 16.9779H69.7234C69.8239 16.976 69.9228 17.0041 70.0078 17.0584C70.0919 17.1089 70.1568 17.1865 70.1919 17.2791L73.6488 23.0739L77.1114 17.2792C77.165 17.1911 77.2363 17.1152 77.3207 17.0565C77.4017 17.0013 77.4978 16.9732 77.5955 16.976H78.5012C78.5504 16.9743 78.5995 16.9828 78.6453 17.0011C78.6911 17.0193 78.7328 17.0469 78.7678 17.0821C78.8013 17.1143 78.8278 17.1531 78.8457 17.1961C78.8637 17.2393 78.8727 17.2855 78.8723 17.3323C78.8729 17.3747 78.8669 17.4169 78.8546 17.4575C78.8414 17.495 78.8235 17.5306 78.8013 17.5636L74.5375 24.8619V29.0833C74.5392 29.1379 74.5297 29.1922 74.5097 29.243C74.4898 29.2937 74.4597 29.3397 74.4213 29.3781C74.3796 29.4182 74.3304 29.4491 74.2764 29.4689C74.2224 29.4889 74.165 29.4972 74.1077 29.4937H73.1876Z" fill="#fff"/>
    <path d="M81.3546 29.4938C81.2992 29.4973 81.2437 29.4888 81.1918 29.4688C81.1399 29.4488 81.0928 29.4179 81.0535 29.3781C80.9821 29.2975 80.9446 29.1917 80.949 29.0834V17.405C80.9413 17.2892 80.9788 17.1749 81.0535 17.0871C81.0928 17.0471 81.1399 17.0162 81.1918 16.9963C81.2437 16.9764 81.2992 16.9679 81.3546 16.9713H85.866C86.7415 16.9713 87.5019 17.1128 88.1474 17.3955C88.7654 17.6595 89.2891 18.1088 89.6482 18.6834C90.0037 19.2489 90.1814 19.9557 90.1814 20.804C90.1816 21.6523 90.0038 22.3556 89.6482 22.9141C89.2867 23.4825 88.7635 23.9262 88.148 24.1866C87.5028 24.4696 86.7421 24.6112 85.866 24.6112H82.7215V29.0824C82.7232 29.1369 82.7139 29.1911 82.6941 29.2418C82.6744 29.2924 82.6447 29.3384 82.6068 29.3771C82.5651 29.4172 82.5157 29.4481 82.4618 29.4679C82.4078 29.4879 82.3504 29.4963 82.2931 29.4927L81.3546 29.4938ZM82.7043 23.1093H85.7771C86.6525 23.1093 87.3094 22.9127 87.748 22.5196C88.1863 22.1266 88.4052 21.5544 88.4045 20.803C88.4045 20.0635 88.1915 19.4913 87.7657 19.0862C87.3398 18.6812 86.6777 18.4786 85.7792 18.4781H82.705L82.7043 23.1093Z" fill="#fff"/>
    <path d="M95.1383 29.4935C95.0842 29.4954 95.0305 29.486 94.98 29.4662C94.9298 29.4464 94.884 29.4163 94.8454 29.3778C94.8072 29.3394 94.7771 29.2934 94.7571 29.2427C94.7371 29.1921 94.7277 29.1377 94.7294 29.0831V18.5674H91.3201C91.2661 18.5695 91.2122 18.5605 91.1619 18.5406C91.1115 18.5207 91.0658 18.4906 91.0275 18.4519C90.9892 18.4133 90.9591 18.3671 90.9392 18.3161C90.9193 18.2652 90.91 18.2107 90.9119 18.156V17.4047C90.9084 17.3465 90.9169 17.2883 90.9365 17.2335C90.9563 17.1789 90.9869 17.1289 91.0266 17.0866C91.0651 17.0481 91.1111 17.0179 91.1615 16.9981C91.2119 16.9781 91.2659 16.9689 91.3201 16.971H99.8828C99.9401 16.9674 99.9975 16.9758 100.051 16.9958C100.105 17.0156 100.155 17.0466 100.196 17.0866C100.236 17.1289 100.267 17.1787 100.287 17.2335C100.306 17.2883 100.315 17.3465 100.311 17.4047V18.1564C100.313 18.2109 100.303 18.2652 100.284 18.3158C100.264 18.3666 100.234 18.4127 100.196 18.4514C100.155 18.4915 100.105 18.5227 100.051 18.5426C99.9975 18.5628 99.9401 18.5713 99.8828 18.5678H96.488V29.0831C96.4897 29.1377 96.4803 29.1921 96.4604 29.2427C96.4403 29.2934 96.4102 29.3394 96.3719 29.3778C96.3302 29.4179 96.2809 29.4488 96.2269 29.4688C96.1729 29.4886 96.1155 29.4971 96.0582 29.4935H95.1383Z" fill="#fff"/>
    <path d="M105.762 29.6725C104.756 29.6725 103.891 29.4957 103.169 29.142C102.452 28.7978 101.865 28.2266 101.496 27.5147C101.105 26.7808 100.886 25.8598 100.839 24.7513C100.827 24.2275 100.821 23.7228 100.821 23.2402C100.821 22.7577 100.827 22.2541 100.839 21.7293C100.886 20.6322 101.114 19.7171 101.523 18.984C101.911 18.2714 102.507 17.6977 103.229 17.3409C103.959 16.9779 104.803 16.7965 105.762 16.7965C106.732 16.7965 107.582 16.9782 108.31 17.3415C109.033 17.7004 109.631 18.2745 110.025 18.9871C110.439 19.7197 110.663 20.6348 110.699 21.7325C110.723 22.2577 110.735 22.7613 110.736 23.2434C110.736 23.726 110.723 24.2307 110.699 24.7545C110.664 25.8637 110.448 26.7847 110.052 27.5178C109.679 28.2271 109.093 28.7973 108.379 29.1455C107.652 29.4968 106.78 29.6725 105.762 29.6725ZM105.762 28.153C106.674 28.153 107.416 27.8788 107.99 27.3302C108.564 26.7817 108.874 25.8933 108.923 24.6651C108.947 24.1285 108.959 23.6485 108.958 23.2252C108.958 22.8017 108.946 22.3277 108.923 21.8033C108.899 20.9818 108.748 20.3141 108.47 19.8002C108.222 19.3189 107.835 18.9262 107.361 18.6746C106.863 18.4281 106.315 18.3056 105.762 18.3172C105.219 18.3073 104.681 18.4299 104.194 18.6746C103.719 18.9262 103.332 19.3189 103.084 19.8002C102.805 20.3135 102.648 20.9811 102.612 21.8033C102.604 22.3286 102.601 22.8025 102.601 23.2253C102.601 23.6479 102.606 24.1279 102.617 24.6652C102.665 25.8932 102.979 26.7815 103.558 27.3304C104.137 27.8791 104.872 28.1533 105.762 28.153Z" fill="#fff"/>
    <path d="M113.52 29.4934C113.466 29.4955 113.412 29.4862 113.362 29.4663C113.312 29.4465 113.266 29.4163 113.227 29.3778C113.189 29.3394 113.159 29.2934 113.139 29.2427C113.119 29.1919 113.11 29.1376 113.111 29.0831V17.4046C113.108 17.3463 113.117 17.2881 113.136 17.2333C113.157 17.1786 113.187 17.1287 113.227 17.0866C113.266 17.0481 113.312 17.0179 113.362 16.998C113.412 16.9782 113.466 16.9688 113.52 16.971H114.408C114.465 16.9661 114.523 16.973 114.578 16.9913C114.633 17.0095 114.684 17.0387 114.728 17.0771C114.783 17.1253 114.825 17.1863 114.852 17.2552L118.616 24.4805L122.399 17.2614C122.435 17.1964 122.48 17.1365 122.532 17.0833C122.574 17.044 122.624 17.0143 122.678 16.9959C122.732 16.9776 122.789 16.9713 122.846 16.9772H123.716C123.773 16.9736 123.831 16.9819 123.884 17.0019C123.938 17.0217 123.988 17.0528 124.029 17.0928C124.069 17.135 124.1 17.185 124.119 17.2398C124.139 17.2944 124.148 17.3528 124.144 17.4109V29.0831C124.146 29.1376 124.137 29.1918 124.117 29.2425C124.097 29.2933 124.068 29.3393 124.029 29.3778C123.988 29.4179 123.938 29.4488 123.884 29.4686C123.831 29.4886 123.773 29.4969 123.716 29.4934H122.843C122.789 29.4954 122.735 29.486 122.684 29.4662C122.634 29.4462 122.588 29.4162 122.55 29.3778C122.512 29.3391 122.482 29.2931 122.462 29.2424C122.442 29.1918 122.433 29.1374 122.435 29.0831V20.282L119.469 26.1139C119.428 26.2253 119.355 26.3218 119.26 26.3908C119.154 26.4597 119.03 26.4942 118.904 26.4893H118.354C118.226 26.4967 118.098 26.4621 117.991 26.3908C117.893 26.3191 117.814 26.2239 117.762 26.1139L114.797 20.282V29.0831C114.798 29.1376 114.788 29.1919 114.768 29.2427C114.748 29.2933 114.718 29.3393 114.68 29.3776C114.641 29.416 114.596 29.4462 114.545 29.466C114.495 29.486 114.442 29.4952 114.388 29.4934H113.52Z" fill="#fff"/>
    <path d="M127.858 29.4935C127.802 29.4972 127.747 29.4888 127.694 29.4688C127.642 29.4489 127.595 29.4179 127.556 29.3781C127.484 29.2973 127.447 29.1915 127.451 29.0832V17.3877C127.446 17.2789 127.484 17.1727 127.556 17.0918C127.595 17.0518 127.642 17.0209 127.694 17.001C127.747 16.9811 127.802 16.9726 127.858 16.9763H128.799C128.853 16.9745 128.906 16.9837 128.957 17.0035C129.007 17.0233 129.053 17.0534 129.091 17.0918C129.13 17.1304 129.16 17.1766 129.179 17.2276C129.199 17.2785 129.208 17.333 129.206 17.3877V29.0832C129.208 29.1377 129.199 29.1921 129.179 29.2428C129.159 29.2935 129.13 29.3395 129.091 29.3781C129.053 29.4164 129.007 29.4463 128.957 29.4663C128.906 29.4862 128.853 29.4954 128.799 29.4935H127.858Z" fill="#fff"/>
    <path d="M132.048 29.4933C131.986 29.4954 131.925 29.4849 131.868 29.4622C131.811 29.4397 131.759 29.4054 131.715 29.3617C131.672 29.318 131.638 29.2659 131.616 29.2084C131.593 29.151 131.583 29.0895 131.584 29.0277V27.5666C131.583 27.5045 131.594 27.4428 131.616 27.3853C131.639 27.3277 131.673 27.2755 131.717 27.2318C131.76 27.1881 131.812 27.1539 131.869 27.1312C131.926 27.1085 131.986 27.098 132.048 27.1H133.498C133.559 27.0981 133.62 27.1089 133.677 27.1315C133.734 27.154 133.786 27.1881 133.83 27.2315C133.873 27.2752 133.907 27.3277 133.93 27.3853C133.952 27.4428 133.963 27.5046 133.961 27.5666V29.0277C133.963 29.0895 133.952 29.1511 133.93 29.2086C133.907 29.266 133.874 29.3182 133.83 29.3617C133.786 29.4054 133.734 29.4397 133.677 29.4622C133.62 29.4848 133.559 29.4953 133.498 29.4933H132.048Z" fill="#fff"/>
    <path d="M136.745 29.4934C136.69 29.497 136.634 29.4885 136.582 29.4685C136.531 29.4485 136.484 29.4176 136.444 29.3778C136.373 29.2972 136.335 29.1915 136.34 29.0831V17.3876C136.335 17.279 136.373 17.1727 136.444 17.0918C136.484 17.052 136.531 17.0211 136.583 17.0012C136.634 16.9812 136.69 16.9728 136.745 16.9762H137.686C137.74 16.9745 137.794 16.9838 137.844 17.0037C137.895 17.0235 137.941 17.0534 137.979 17.0918C138.017 17.1305 138.047 17.1767 138.067 17.2276C138.086 17.2785 138.096 17.333 138.094 17.3876V29.0831C138.095 29.1378 138.086 29.1921 138.066 29.2427C138.046 29.2934 138.016 29.3394 137.977 29.3778C137.939 29.4163 137.893 29.4464 137.843 29.4662C137.793 29.4862 137.739 29.4954 137.686 29.4934H136.745Z" fill="#fff"/>
    <path d="M145.409 29.6725C144.403 29.6725 143.538 29.4957 142.816 29.142C142.099 28.7972 141.512 28.2262 141.143 27.5147C140.752 26.7808 140.532 25.8598 140.485 24.7513C140.474 24.2275 140.468 23.7228 140.468 23.2402C140.468 22.7577 140.474 22.2541 140.485 21.7293C140.533 20.6322 140.761 19.7171 141.169 18.984C141.558 18.271 142.155 17.6971 142.878 17.3409C143.606 16.9779 144.449 16.7965 145.409 16.7965C146.378 16.7965 147.228 16.9782 147.957 17.3415C148.68 17.701 149.277 18.275 149.671 18.9871C150.085 19.7197 150.31 20.6348 150.346 21.7325C150.368 22.259 150.381 22.7627 150.381 23.2434C150.381 23.726 150.368 24.2307 150.346 24.7545C150.31 25.8637 150.094 26.7847 149.697 27.5178C149.323 28.2282 148.736 28.7986 148.02 29.1455C147.294 29.4968 146.423 29.6725 145.409 29.6725ZM145.409 28.153C146.32 28.153 147.063 27.8788 147.637 27.3302C148.212 26.7817 148.522 25.8933 148.568 24.6651C148.594 24.1285 148.605 23.6485 148.605 23.2252C148.605 22.8017 148.594 22.3277 148.57 21.8033C148.545 20.9818 148.395 20.3141 148.117 19.8002C147.869 19.3189 147.481 18.9262 147.007 18.6746C146.51 18.4281 145.962 18.3056 145.409 18.3172C144.867 18.308 144.332 18.4307 143.846 18.6746C143.372 18.9259 142.984 19.3187 142.737 19.8002C142.458 20.3136 142.301 20.9814 142.266 21.8033C142.254 22.3286 142.248 22.8025 142.248 23.2253C142.248 23.6479 142.254 24.1279 142.266 24.6652C142.313 25.8932 142.627 26.7815 143.207 27.3304C143.786 27.8791 144.521 28.1533 145.409 28.153Z" fill="#fff"/>
</svg>
