<svg width="16" height="16" viewBox="0 0 16 16" fill="none" xmlns="http://www.w3.org/2000/svg">
<path fill-rule="evenodd" clip-rule="evenodd" d="M8.52398 3.86646C7.68425 3.76001 6.83198 3.91184 6.08066 4.30176C5.32934 4.69168 4.7146 5.30118 4.31826 6.04914C3.92192 6.79711 3.7628 7.64804 3.86206 8.48864C3.89444 8.76291 3.69838 9.01144 3.42414 9.04384C3.14991 9.07624 2.90134 8.88018 2.86896 8.60591C2.74588 7.56351 2.9432 6.50838 3.43465 5.58092C3.92611 4.65345 4.68839 3.89766 5.62003 3.41417C6.55167 2.93067 7.60845 2.7424 8.64978 2.8744C8.92371 2.90914 9.11765 3.15937 9.08291 3.43332C9.04818 3.70727 8.79798 3.9012 8.52398 3.86646ZM12.6666 7.50004C12.9428 7.50004 13.1666 7.72391 13.1666 8.00004C13.1666 9.04971 12.847 10.0744 12.2501 10.9378C11.6533 11.8013 10.8076 12.4624 9.82571 12.8334C8.84384 13.2043 7.77224 13.2673 6.75358 13.0141C6.48562 12.9475 6.32238 12.6762 6.38899 12.4083C6.4556 12.1403 6.72684 11.977 6.99484 12.0436C7.81631 12.2478 8.68051 12.197 9.47238 11.8979C10.2642 11.5988 10.9462 11.0656 11.4275 10.3692C11.9088 9.67291 12.1666 8.84651 12.1666 8.00004C12.1666 7.72391 12.3905 7.50004 12.6666 7.50004Z" fill="#AEAEAE"/>
<path fill-rule="evenodd" clip-rule="evenodd" d="M7.64645 1.64644C7.84172 1.45118 8.15825 1.45118 8.35352 1.64644L9.45118 2.74408C9.77658 3.06951 9.77658 3.59715 9.45118 3.92258L8.35352 5.02022C8.15825 5.21548 7.84172 5.21548 7.64645 5.02022C7.45118 4.82496 7.45118 4.50837 7.64645 4.31311L8.62618 3.33333L7.64645 2.35355C7.45118 2.15829 7.45118 1.8417 7.64645 1.64644Z" fill="#AEAEAE"/>
</svg>
