<svg width="37" height="36" viewBox="0 0 37 36" fill="none" xmlns="http://www.w3.org/2000/svg">
<path d="M32 24C32 28.1421 28.6421 31.5 24.5 31.5L12.5 31.5C8.3579 31.5 5 28.1421 5 24L5 12C5 7.8579 8.3579 4.5 12.5 4.5L24.5 4.5C28.6421 4.5 32 7.8579 32 12L32 24Z" stroke="#4CE97D" stroke-width="2.25" stroke-linecap="round"/>
<path d="M16.2848 12.4107L16.3026 25.6203C16.3031 25.9331 15.932 26.1074 15.681 25.9124L11.5131 22.6728" stroke="#4CE97D" stroke-width="1.74194" stroke-linecap="round"/>
<path d="M20.7148 23.5889L20.6972 10.3793C20.6968 10.0666 21.0679 9.89229 21.3187 10.0874L25.4867 13.3268" stroke="#4CE97D" stroke-width="1.74194" stroke-linecap="round"/>
</svg>
