<svg width="24" height="24" viewBox="0 0 24 24" fill="none" xmlns="http://www.w3.org/2000/svg">
<rect width="24" height="24" rx="12" fill="#FAE31B"/>
<path d="M12.645 7.242L12.491 14.242H11.427L11.273 7.242H12.645ZM12.015 17.084C11.7724 17.084 11.567 17 11.399 16.832C11.231 16.664 11.147 16.4587 11.147 16.216C11.147 15.9733 11.231 15.768 11.399 15.6C11.567 15.432 11.7724 15.348 12.015 15.348C12.2484 15.348 12.4444 15.432 12.603 15.6C12.771 15.768 12.855 15.9733 12.855 16.216C12.855 16.4587 12.771 16.664 12.603 16.832C12.4444 17 12.2484 17.084 12.015 17.084Z" fill="#1C1E26"/>
</svg>
