<svg width="24" height="24" viewBox="0 0 24 24" fill="none" xmlns="http://www.w3.org/2000/svg">
<path d="M20.2 9.00957C21.6 10.6996 21.6 13.2996 20.2 14.9896C18.2 17.3996 15.27 18.9396 12 18.9396C8.73001 18.9396 5.81 17.4096 3.8 14.9896C2.4 13.2996 2.4 10.6996 3.8 9.00957C5.8 6.59957 8.73001 5.05957 12 5.05957C15.27 5.05957 18.19 6.58957 20.2 9.00957Z" stroke="#5E6063" stroke-width="1.5" stroke-linecap="round" stroke-linejoin="round"/>
<path d="M20.2 9.00957C21.6 10.6996 21.6 13.2996 20.2 14.9896C18.2 17.3996 15.27 18.9396 12 18.9396C8.73001 18.9396 5.81 17.4096 3.8 14.9896C2.4 13.2996 2.4 10.6996 3.8 9.00957C5.8 6.59957 8.73001 5.05957 12 5.05957C15.27 5.05957 18.19 6.58957 20.2 9.00957Z" stroke="#5E6063" stroke-width="1.5" stroke-linecap="round" stroke-linejoin="round"/>
<path d="M11.9999 15.0799C13.7009 15.0799 15.0799 13.701 15.0799 11.9999C15.0799 10.2989 13.7009 8.91992 11.9999 8.91992C10.2989 8.91992 8.91992 10.2989 8.91992 11.9999C8.91992 13.701 10.2989 15.0799 11.9999 15.0799Z" stroke="#5E6063" stroke-width="1.5" stroke-linecap="round" stroke-linejoin="round"/>
</svg>
