<svg width="14" height="14" viewBox="0 0 14 14" fill="none" xmlns="http://www.w3.org/2000/svg">
<path d="M12.373 2.7196C12.7011 3.14953 12.9789 3.6166 13.2007 4.11144L6.90883 8.81194L4.2793 7.14141V5.13168L6.90883 6.80221L12.373 2.7196Z" fill="#4CE97D"/>
<path d="M1.59574 6.99977C1.59574 6.90959 1.59791 6.82 1.60225 6.73093L0.00867888 6.65179C0.00325488 6.76723 1.92576e-06 6.88378 1.92576e-06 7.00139C-0.000676096 7.92042 0.177691 8.8305 0.524875 9.67946C0.872057 10.5285 1.38122 11.2996 2.02316 11.9487L3.15352 10.8037C2.65938 10.3049 2.26738 9.71208 2.00004 9.05928C1.7327 8.40647 1.59531 7.70654 1.59574 6.99977Z" fill="url(#paint0_linear_719_864)"/>
<path d="M6.90735 1.61722C6.99629 1.61722 7.08467 1.62052 7.17254 1.62492L7.25228 0.00934898C7.13805 0.00385199 7.02304 0.00110382 6.90735 0.00110382C6.00009 -1.74295e-05 5.10161 0.180489 4.26342 0.532258C3.42522 0.884028 2.66385 1.40013 2.02301 2.05094L3.15337 3.19651C3.64554 2.69556 4.23056 2.29814 4.87481 2.02711C5.51905 1.75608 6.20977 1.61678 6.90735 1.61722Z" fill="url(#paint1_linear_719_864)"/>
<path d="M6.90756 12.3829C6.81862 12.3829 6.7302 12.3829 6.64181 12.3758L6.56207 13.9908C6.67669 13.9967 6.79187 13.9996 6.90756 13.9996C7.81444 14.0005 8.71249 13.8199 9.55024 13.4681C10.388 13.1162 11.1489 12.6 11.7892 11.9492L10.661 10.8042C10.1688 11.3049 9.58379 11.7021 8.93968 11.973C8.29556 12.2439 7.60497 12.3833 6.90756 12.3829Z" fill="url(#paint2_linear_719_864)"/>
<path d="M9.90183 2.55612L11.2448 1.55291C10.0173 0.545565 8.48507 -0.00279629 6.90558 1.07233e-05V1.61668C7.97514 1.61533 9.01987 1.94291 9.90183 2.55612Z" fill="url(#paint3_linear_719_864)"/>
<path d="M13.8147 7.00002C13.8155 6.57946 13.7792 6.15962 13.7062 5.74561L12.2195 6.856C12.2195 6.90385 12.2195 6.95166 12.2195 7.00002C12.2198 7.75217 12.0643 8.49601 11.7629 9.18331C11.4614 9.87061 11.0208 10.4861 10.4697 10.9897L11.542 12.1909C12.2585 11.5353 12.8311 10.7344 13.2226 9.84022C13.6142 8.94598 13.8159 7.97833 13.8147 7.00002Z" fill="#4CE97D"/>
<path d="M6.90736 12.3831C6.16514 12.3834 5.43115 12.2257 4.75288 11.9202C4.07464 11.6147 3.46725 11.1683 2.97006 10.6098L1.78546 11.696C2.43225 12.4223 3.22245 13.0027 4.10481 13.3996C4.98717 13.7964 5.94198 14.0009 6.90736 13.9998V12.3831Z" fill="url(#paint4_linear_719_864)"/>
<path d="M3.34553 3.01006L2.27375 1.80896C1.557 2.46441 0.984205 3.26522 0.592497 4.15946C0.200794 5.05368 -0.00106792 6.02138 4.24871e-06 6.99977H1.59575C1.59542 6.24767 1.75101 5.50382 2.05244 4.81652C2.35387 4.12924 2.79442 3.51379 3.34553 3.01006Z" fill="url(#paint5_linear_719_864)"/>
<defs>
<linearGradient id="paint0_linear_719_864" x1="2.34589" y1="11.747" x2="0.560541" y2="6.65445" gradientUnits="userSpaceOnUse">
<stop offset="0.14" stop-color="#F1E813"/>
<stop offset="0.3" stop-color="#E6E418"/>
<stop offset="0.58" stop-color="#C9DA26"/>
<stop offset="0.89" stop-color="#A2CC39"/>
</linearGradient>
<linearGradient id="paint1_linear_719_864" x1="2.47862" y1="2.33678" x2="6.98422" y2="0.642561" gradientUnits="userSpaceOnUse">
<stop offset="0.06" stop-color="#0FA7DF"/>
<stop offset="0.54" stop-color="#0098F8"/>
<stop offset="0.92" stop-color="#0290EA"/>
</linearGradient>
<linearGradient id="paint2_linear_719_864" x1="6.45687" y1="13.0239" x2="11.5413" y2="11.8905" gradientUnits="userSpaceOnUse">
<stop offset="0.12" stop-color="#A2CC39"/>
<stop offset="0.28" stop-color="#86C239"/>
<stop offset="0.87" stop-color="#219F38"/>
</linearGradient>
<linearGradient id="paint3_linear_719_864" x1="6.57366" y1="0.541465" x2="10.925" y2="1.86644" gradientUnits="userSpaceOnUse">
<stop offset="0.06" stop-color="#0290EA"/>
<stop offset="0.79" stop-color="#0C89CA"/>
</linearGradient>
<linearGradient id="paint4_linear_719_864" x1="2.18575" y1="11.4992" x2="6.92649" y2="13.2475" gradientUnits="userSpaceOnUse">
<stop offset="0.13" stop-color="#F1E813"/>
<stop offset="0.3" stop-color="#EAE616"/>
<stop offset="0.53" stop-color="#D8DF1F"/>
<stop offset="0.8" stop-color="#BAD52D"/>
<stop offset="0.98" stop-color="#A2CC39"/>
</linearGradient>
<linearGradient id="paint5_linear_719_864" x1="0.594474" y1="7.19546" x2="2.53588" y2="2.21224" gradientUnits="userSpaceOnUse">
<stop offset="0.07" stop-color="#A2CC39"/>
<stop offset="0.26" stop-color="#81C45E"/>
<stop offset="0.92" stop-color="#0FA7DF"/>
</linearGradient>
</defs>
</svg>
