<svg width="14" height="14" viewBox="0 0 14 14" fill="none" xmlns="http://www.w3.org/2000/svg">
<path d="M13.8151 6.54718L14 5.96643L13.3985 5.98543C13.1168 5.97507 12.8454 5.88001 12.6173 5.71236H12.6985C13.0649 5.71061 13.4002 5.50149 13.5627 5.17308L13.8272 4.6079C13.6198 4.60965 13.4123 4.59754 13.2067 4.57161C13.0096 4.52495 12.8333 4.41778 12.7002 4.26571C12.5205 4.07384 12.2716 3.96495 12.0089 3.96324C11.9069 3.96324 11.8049 3.98049 11.7064 4.01161C11.7202 3.96495 11.7323 3.9183 11.741 3.86989C11.7825 3.53284 11.6874 3.19236 11.4783 2.92446L11.022 2.36273L10.742 3.01952C10.6971 3.11285 10.6296 3.19409 10.5432 3.25285C10.4948 3.01779 10.3808 2.80347 10.2114 2.63409C9.92789 2.34372 9.539 2.18125 9.13283 2.18471C9.06199 2.18471 8.99111 2.18989 8.92199 2.20026L8.37582 2.30742C8.42247 2.12421 8.49677 1.94964 8.59705 1.7889L8.89777 1.32051L8.14075 1.39137L7.89876 0.872853L7.43211 1.12692L7 0.700012L6.56789 1.12692L6.10123 0.884952L5.85924 1.39137L5.10223 1.30495L5.40295 1.77507C5.50322 1.93581 5.57753 2.11038 5.62418 2.29359L5.10569 2.19162H5.0884C5.01581 2.18125 4.94322 2.17606 4.8706 2.17606C4.46446 2.17261 4.07554 2.33508 3.79211 2.62544C3.621 2.79655 3.50346 3.01433 3.45679 3.25285C3.37383 3.19581 3.30642 3.11804 3.26148 3.02643L2.97975 2.36446L2.52 2.92791C2.31432 3.19581 2.22272 3.53459 2.26247 3.86989C2.27111 3.9183 2.28321 3.96495 2.29704 4.01161C2.19852 3.98049 2.09654 3.96324 1.99457 3.96324C1.73185 3.96495 1.48296 4.07384 1.30321 4.26571C1.17185 4.41607 0.997283 4.52324 0.801976 4.57161C0.594569 4.60272 0.383705 4.61483 0.172839 4.6079L0.43037 5.18173C0.59284 5.51013 0.928147 5.71926 1.29457 5.72101H1.3758C1.15111 5.88519 0.883211 5.98025 0.60494 5.99236L0 5.96643L0.184938 6.54718C0.32321 7.00173 0.715554 7.33531 1.18741 7.39583C1.13901 7.70173 0.945431 7.96619 0.668889 8.10447L0.205679 8.29284L0.454569 8.72667C0.660247 9.04643 1.01457 9.23655 1.39309 9.23308C1.49161 9.23308 1.59012 9.22272 1.68691 9.202C1.71111 9.30742 1.74222 9.41284 1.77679 9.51483C1.86321 9.74296 1.86839 9.99185 1.79408 10.2235L1.56938 10.6953L2.07235 10.8284C2.18469 10.8578 2.30222 10.8716 2.41802 10.8716C2.50099 10.8716 2.58222 10.863 2.66346 10.844C2.72222 10.8301 2.78099 10.8128 2.83629 10.7904C2.90025 10.9062 2.98148 11.0134 3.07309 11.1084C3.39457 11.4385 3.85088 11.6062 4.42988 11.6062H4.84295L3.99088 11.9605L4.63729 12.2803C4.89828 12.4082 5.16446 12.524 5.43581 12.6259L5.35801 12.8506L5.58099 12.9526C5.95087 13.0978 6.34323 13.179 6.74076 13.1928H7.27135C7.66717 13.179 8.05777 13.0961 8.42593 12.9509L8.64199 12.8506L8.56594 12.6259C8.84075 12.5205 9.11036 12.4012 9.37307 12.2681L10.0074 11.9605L9.15705 11.6148H9.57184C10.1509 11.6148 10.6089 11.442 10.9286 11.1171C11.022 11.022 11.1015 10.9148 11.1654 10.799C11.2208 10.8215 11.2795 10.8388 11.3383 10.8526C11.4195 10.8716 11.5008 10.8803 11.5837 10.8803C11.6995 10.8803 11.817 10.8647 11.9294 10.8371L12.4341 10.704L12.2146 10.2408C12.1316 10.0057 12.1351 9.74818 12.2232 9.51483C12.2595 9.40938 12.2889 9.30224 12.3131 9.19507C12.4099 9.21583 12.5101 9.22619 12.6086 9.22619C12.9906 9.22965 13.3467 9.0326 13.5489 8.70766L13.7943 8.27902L13.338 8.09236C13.0615 7.95408 12.8679 7.68965 12.8195 7.38372C13.2914 7.32149 13.6837 6.98965 13.822 6.53336L13.8151 6.54718Z" fill="#F0F0F0"/>
<path d="M9.07757 8.38273H4.92941V9.93827C4.92941 10.5778 5.39088 10.9753 6.07359 10.9753C6.64399 10.9753 6.79435 10.9978 7.00522 11.2086C7.13829 11.0652 7.3267 10.984 7.52375 10.9874V10.9632L7.6551 10.5588L7.43212 10.315C7.34224 10.3427 7.24893 10.3531 7.15558 10.3479C7.01558 10.3462 6.8773 10.3323 6.74076 10.3047H6.69757C6.67853 10.3047 6.67853 10.3047 6.67335 10.315L6.64745 10.3583L6.60076 10.436L6.51088 10.4153L6.11164 10.322L6.05634 10.4119V10.4222L6.10471 10.4758L6.08399 10.5449C6.04769 10.6296 5.99582 10.7057 5.93016 10.7714L5.82992 10.8785L5.73829 10.7644L5.67088 10.6797C5.59829 10.5847 5.581 10.4603 5.62251 10.3479L5.51016 10.3946L5.46004 10.284L5.43239 10.2062C5.36152 10.042 5.4151 9.85186 5.55853 9.74815L5.88004 9.57532L6.18594 9.6358C6.18594 9.60644 6.20498 9.50098 6.21363 9.47505H6.19634L6.02347 9.54074L5.85064 9.42321C5.81606 9.38863 5.81435 9.33162 5.85064 9.29532L6.01483 9.04644L5.59829 8.52791L6.22224 8.77333L6.26546 8.7215L6.35188 8.61779L6.4504 8.7111C6.47634 8.73704 6.49359 8.76815 6.50224 8.80445C6.6751 8.87357 6.99483 9.0758 7.02076 9.40421L6.92224 9.44397C6.93435 9.46122 6.94992 9.47505 6.96893 9.48369L7.42522 9.52863L7.4667 9.51656C7.54447 9.48716 7.62745 9.47162 7.7104 9.46987C7.79335 9.46987 7.87459 9.48891 7.94893 9.5252C7.98176 9.51309 8.01805 9.50616 8.05263 9.50445H8.0751C8.3188 9.50445 8.44151 9.68767 8.53829 9.83285L8.58841 9.90544C8.67311 10.0264 8.78546 10.2027 8.79064 10.2096L8.84076 10.2874L8.77853 10.36C8.72151 10.436 8.63163 10.4793 8.53658 10.4793C8.50892 10.481 8.48127 10.481 8.45359 10.4793C8.4294 10.4741 8.40522 10.4672 8.381 10.4568C8.381 10.481 8.381 10.5104 8.36718 10.5346L8.29634 10.9425C8.76646 10.8474 9.09829 10.4257 9.07929 9.9452L9.07757 8.38273ZM4.92423 8.25656H8.15459C8.02323 8.11831 7.97829 7.91954 8.03706 7.73803C7.99387 7.71731 7.95236 7.68966 7.91606 7.65855C7.78989 7.75186 7.39757 8.03186 7.30423 8.10273L7.28347 8.11656L6.01483 7.89186H5.98893C5.94742 7.89361 5.90594 7.89361 5.86447 7.89186C5.85236 7.94891 5.80224 7.98867 5.74522 7.98867H5.72447C5.65706 7.97656 5.6104 7.91261 5.62076 7.8452V7.81755C5.45658 7.70002 5.37881 7.49608 5.422 7.29903V7.27656L5.441 7.26273C5.441 7.26273 5.46522 7.24544 5.49805 7.22644L5.40646 7.21261C5.37188 7.20568 5.34941 7.1746 5.35459 7.14002C5.35977 7.10544 5.39088 7.08297 5.42546 7.08815H5.42718L5.6467 7.12273L5.66742 6.35014L5.99411 6.00445L6.19805 6.43309L5.98375 7.17632L6.1773 7.20743C6.21188 7.21433 6.23435 7.24544 6.22917 7.28002C6.22399 7.31114 6.19805 7.33186 6.16694 7.33186H6.15658L5.99929 7.30596V7.31803C6.01658 7.34915 6.04251 7.37337 6.07534 7.38891L7.04152 7.40445L7.28865 7.16078C7.10028 7.09508 6.96546 6.92915 6.94299 6.73038C6.822 6.68373 6.72347 6.59385 6.66817 6.47803C6.62152 6.36915 6.61287 6.24644 6.6457 6.13237C6.49359 6.07186 6.35534 5.98026 6.24299 5.86273H4.80841C4.87757 6.03213 4.9173 6.21186 4.92423 6.39337V8.25656Z" fill="#FCE527"/>
<path d="M6.24991 9.06201C6.22915 9.06201 6.21015 9.07755 6.2084 9.09831V9.10002C6.20668 9.12249 6.22397 9.14325 6.24644 9.14496H6.24816C6.27234 9.14496 6.28963 9.12596 6.28963 9.10349C6.28963 9.07927 6.27234 9.06201 6.24991 9.06201Z" fill="#121315"/>
<path d="M6.24817 9.06025C6.24988 9.06025 6.24988 9.06196 6.24988 9.06196C6.25163 9.06196 6.25163 9.06025 6.25335 9.06025H6.24817ZM9.07232 11.8948L8.83383 11.8032L8.89949 11.556L8.97208 11.2864C8.64542 11.4541 8.30319 11.5889 7.9506 11.6891C7.77777 11.7375 7.65331 11.76 7.65331 11.76V11.9346C7.44072 11.9691 7.22642 11.9881 7.01036 11.9899H6.99136C6.7753 11.9881 6.56096 11.9691 6.34837 11.9346V11.7617C6.34837 11.7617 6.2222 11.7375 6.04937 11.6891C5.69678 11.5889 5.35455 11.4541 5.02789 11.2864L5.09877 11.556L5.16614 11.8032L4.9259 11.8948L4.66666 11.9933C5.02271 12.1783 5.39431 12.3321 5.77801 12.4531L5.68642 12.702C6.10295 12.861 6.54889 12.9387 6.99479 12.9284H7.00518C7.45108 12.9387 7.89702 12.861 8.31355 12.702L8.22367 12.4531C8.60566 12.3321 8.97726 12.1783 9.33331 11.9933L9.07232 11.8948ZM4.9553 12.0089L5.34244 11.8793L5.22666 11.499C5.48072 11.6252 5.74343 11.7306 6.01479 11.8136L5.82467 12.3321C5.52566 12.2526 5.23355 12.1437 4.9553 12.0089ZM7.01036 12.8057L7.00172 12.7987C6.62148 12.797 6.24295 12.7452 5.87654 12.6449L6.10985 12.0123C6.40024 12.0849 6.69925 12.1247 6.99997 12.1264H7.01901C7.31973 12.123 7.61873 12.0849 7.90913 12.0123L8.14244 12.6449C7.77431 12.7486 7.39232 12.8022 7.01036 12.8057ZM8.18913 12.3424V12.3373L7.99901 11.8187C8.27036 11.7358 8.53307 11.6304 8.78714 11.5042L8.67136 11.8844L9.06367 12.0158C8.78367 12.1523 8.48985 12.263 8.18913 12.3424ZM7 2.02912C7.3906 2.01875 7.77431 2.13628 8.09232 2.36271C8.14247 2.1069 8.23753 1.86147 8.37407 1.63851L7.98172 1.68345L7.77777 1.24616L7.38196 1.45011L7 1.07159L6.61801 1.45011L6.2222 1.24616L6.01825 1.68345L5.6259 1.63851C5.76247 1.86147 5.85753 2.1069 5.90765 2.36271C6.22566 2.13628 6.60937 2.01875 7 2.02912ZM6.00096 1.83554L6.10988 1.84764L6.15654 1.74912L6.29307 1.4553L6.54714 1.58665L6.64566 1.63678L6.72518 1.56418L7 1.28591L7.27479 1.56418L7.35431 1.64196L7.45283 1.59184L7.70518 1.46048L7.84343 1.75431L7.89012 1.85283L7.99901 1.84073L8.10271 1.82863C8.06124 1.92369 8.02494 2.02221 7.99554 2.12246C7.3716 1.80271 6.63012 1.80271 6.00618 2.12246C5.97678 2.02221 5.94048 1.92369 5.89901 1.82863L6.00096 1.83554ZM12.1265 5.59651L12.0798 5.53949C11.7583 5.12985 11.4524 4.74097 10.9062 4.56292C10.9287 4.54392 10.9512 4.52663 10.9753 4.51109C11.2346 4.36416 11.4178 4.11184 11.4766 3.81973C11.5059 3.55527 11.4316 3.29084 11.2692 3.07998L11.0963 2.86393L10.9874 3.12146C10.9874 3.13701 10.7956 3.55009 10.4084 3.55009H10.2943C10.3151 3.27874 10.2166 3.01084 10.0247 2.81726C9.79139 2.57874 9.46992 2.44566 9.13633 2.44738C9.0741 2.44738 9.01187 2.45257 8.95139 2.46121L8.68693 2.51307L8.85115 2.72911C8.97904 2.90195 9.09482 3.20097 8.95829 3.36171C8.89263 3.41874 8.81829 3.46368 8.73705 3.49479C8.56422 3.57603 8.31534 3.69184 8.31534 3.9822C8.31534 4.17061 8.46223 4.36762 8.72669 4.53527C9.50621 5.02961 9.98841 5.53949 10.1976 6.11332C10.5208 6.98786 10.099 7.48567 9.6894 7.74838L9.50621 7.86591L9.66693 8.0128C9.8104 8.13555 9.98669 8.21157 10.1751 8.23061H10.3324C10.4931 8.23061 10.6521 8.20814 10.8059 8.16145C10.7679 8.22886 10.7213 8.2928 10.6712 8.35157C10.4378 8.62292 10.0921 8.77157 9.73434 8.75256H9.58052L9.56841 8.90639C9.56669 9.12244 9.66175 9.32639 9.82594 9.46639C9.86916 9.50443 9.91757 9.53555 9.9694 9.55973C9.71359 9.80862 9.56841 10.1491 9.56323 10.5069C9.56323 10.7022 9.51829 10.8958 9.43359 11.0721L9.26076 11.3313H9.56841C10.0766 11.3313 10.4655 11.1913 10.7351 10.9131C10.8751 10.7661 10.9788 10.5881 11.0393 10.3946C11.1395 10.4792 11.2571 10.538 11.385 10.5674C11.4455 10.5812 11.5077 10.5881 11.5699 10.5881C11.6632 10.5881 11.7566 10.576 11.8465 10.5553L12.0435 10.5034L11.9571 10.3202C11.8482 10.0281 11.8482 9.70491 11.9571 9.4128C12.021 9.22268 12.0659 9.02567 12.0902 8.82515C12.2457 8.90467 12.4185 8.94443 12.5931 8.94268C12.88 8.94615 13.1479 8.80443 13.3035 8.56416L13.3985 8.39133L13.2257 8.31874C12.6467 8.0785 12.5188 7.43208 12.4929 7.08292C12.5499 7.09503 12.6069 7.10196 12.6657 7.10368L12.7141 7.13651C13.3432 7.13651 13.5541 6.49527 13.5627 6.46762L13.6336 6.24121H13.3968C12.899 6.22392 12.4341 5.98886 12.1265 5.59651ZM12.7158 6.96196H12.6916C12.5655 6.96368 12.441 6.9291 12.3339 6.86344C12.3339 6.86344 12.2422 8.11308 13.1739 8.50021V8.50539C13.0512 8.69208 12.8403 8.80268 12.6173 8.79922C12.365 8.81479 12.1213 8.70762 11.9622 8.51232C11.9674 8.80615 11.919 9.09997 11.8205 9.37651C11.6943 9.71009 11.6943 10.08 11.8205 10.4136C11.7427 10.4326 11.665 10.4429 11.5855 10.4429C11.5371 10.4429 11.4869 10.4377 11.4403 10.4257C11.2104 10.3703 11.0272 10.201 10.9529 9.97798C10.9529 9.97798 10.9892 11.1775 9.59088 11.1775H9.58052C9.68594 10.977 9.74127 10.754 9.73952 10.5276C9.80004 9.64097 10.4015 9.51479 10.4015 9.51479C10.2356 9.49404 10.0783 9.43527 9.94004 9.34196C9.81386 9.23651 9.74127 9.08097 9.73781 8.91678C10.1422 8.93404 10.5329 8.76639 10.7973 8.45874C10.9563 8.27726 11.0618 8.05603 11.1067 7.81922C10.8837 7.9869 10.6089 8.07157 10.3306 8.05949H10.1889C10.0385 8.04392 9.8951 7.98515 9.77928 7.88663C10.3116 7.54097 10.685 6.94985 10.3548 6.0528C10.0887 5.3338 9.45088 4.79627 8.80964 4.39184C8.59705 4.26045 8.46916 4.11184 8.46916 3.98392C8.46916 3.6832 8.89606 3.67455 9.07239 3.46541C9.27458 3.23035 9.14841 2.8501 8.97211 2.62195C9.02223 2.61331 9.0741 2.60985 9.12422 2.60985C9.41287 2.6064 9.69115 2.7222 9.89163 2.92961C10.0956 3.12319 10.1733 3.41529 10.0956 3.68491L10.1889 3.70392C10.2459 3.71431 10.303 3.71949 10.3618 3.72121H10.3998C10.9062 3.72121 11.1343 3.1906 11.1343 3.1906C11.1343 3.1906 11.6736 3.85431 10.8803 4.3728C10.7437 4.46097 10.6832 4.54567 10.7074 4.63208L10.7195 4.6891L10.7766 4.69949C11.3521 4.85503 11.6408 5.25256 11.9985 5.70368C12.3373 6.13404 12.8489 6.39332 13.3968 6.41232H13.4072C13.4072 6.41232 13.2343 6.96196 12.7158 6.96196Z" fill="#121315"/>
<path d="M11.6061 4.64077C11.7997 4.75137 11.9674 4.90176 12.0988 5.08149C12.1973 5.2336 12.3373 5.35459 12.5032 5.42718C12.5654 5.44794 12.6328 5.4583 12.6985 5.4583C12.9629 5.4583 13.2049 5.30794 13.3259 5.07284L13.4261 4.84818L13.1824 4.83435C12.9197 4.78595 12.6829 4.65113 12.5084 4.4489C12.3788 4.3089 12.1973 4.22766 12.0054 4.22595C11.8568 4.22766 11.7133 4.2726 11.5889 4.35212L11.3642 4.50941L11.6061 4.64077ZM12.0106 4.3936L12.0054 4.39531C12.1523 4.39531 12.2906 4.45929 12.3891 4.56818C12.5913 4.79977 12.8679 4.9536 13.1721 5.00372C13.0788 5.1783 12.8973 5.28718 12.6985 5.2889C12.6501 5.2889 12.6017 5.28025 12.5551 5.26471C12.2751 5.16965 12.1765 4.74619 11.6908 4.49041C11.7859 4.42818 11.8965 4.39531 12.0106 4.3936ZM11.7202 6.86866L11.7168 6.86519C11.5751 5.72444 10.7472 4.90001 9.82593 4.40049C9.74123 4.35384 9.66175 4.31583 9.58569 4.2795C9.96593 4.3573 10.3617 4.26396 10.6676 4.02543C10.6676 4.02543 10.1336 4.41778 9.04123 4.06173C9.3437 4.25878 9.93135 4.53531 10.4689 4.98471C11.8101 6.16348 10.8509 7.31459 10.8509 7.31459C11.2519 6.93432 11.3919 6.3536 11.2121 5.83161C11.4956 6.30348 11.6321 6.84965 11.6027 7.39926C11.5647 8.30495 11.0617 9.09655 10.5432 9.72742C10.3876 9.92619 10.2805 10.1595 10.2356 10.4084C10.3237 10.1612 10.4568 9.93308 10.6296 9.73607C11.1913 9.07754 11.6667 8.39483 11.7341 7.41137C11.7929 7.5842 12.0314 8.08718 12.4116 8.27555C12.4116 8.27555 11.9346 7.98866 11.7202 6.86866ZM4.5647 11.0842C4.48175 10.9079 4.43681 10.7144 4.43506 10.5191C4.42988 10.1613 4.28298 9.82077 4.02717 9.57188C4.079 9.5477 4.12741 9.51658 4.17063 9.47857C4.33482 9.33857 4.42988 9.13459 4.42816 8.91857L4.41777 8.76471H4.26223C3.90617 8.782 3.56051 8.63511 3.32717 8.36375C3.27704 8.30499 3.2321 8.24104 3.19235 8.17363C3.34618 8.22029 3.50518 8.24276 3.66593 8.24276H3.82322C4.01163 8.22375 4.18964 8.1477 4.3331 8.02499L4.49382 7.87806L4.31063 7.76053C3.89928 7.49782 3.47926 7.00005 3.80247 6.12547C4.01163 5.55682 4.49382 5.04348 5.28024 4.54917C5.5447 4.37634 5.68988 4.18447 5.68988 3.9961C5.68988 3.70571 5.44617 3.58993 5.26816 3.50869C5.18693 3.47757 5.11259 3.43263 5.04693 3.37559C4.90864 3.21485 5.02446 2.90892 5.15406 2.743L5.32693 2.52695L5.06075 2.4751C5.00024 2.46473 4.93804 2.46127 4.87581 2.46127C4.53876 2.4509 4.21382 2.58053 3.9753 2.81732C3.78 3.00917 3.67804 3.2788 3.69705 3.55188H3.59334C3.20445 3.55188 3.02124 3.14053 3.01432 3.12325L2.90544 2.86571L2.7326 3.08177C2.57186 3.29263 2.49754 3.55706 2.52692 3.82152C2.58568 4.11363 2.76717 4.36595 3.02642 4.51288C3.05062 4.52842 3.07482 4.54571 3.09556 4.56471C2.54939 4.73758 2.24346 5.13164 1.92198 5.54128L1.87531 5.60005C1.56766 5.9924 1.10099 6.22746 0.603214 6.24471H0.366425L0.439015 6.47116C0.439015 6.49881 0.656795 7.14005 1.28766 7.14005H1.31877C1.37754 7.1383 1.43457 7.1314 1.49161 7.11929C1.46568 7.46499 1.33778 8.11487 0.757042 8.35511L0.584202 8.4277L0.679262 8.60053C0.834819 8.84077 1.10272 8.98252 1.38963 8.97905C1.5642 8.98077 1.73531 8.94101 1.89087 8.86152C1.91507 9.062 1.96 9.25905 2.02395 9.44917C2.13284 9.74128 2.13284 10.0645 2.02395 10.3566L1.93754 10.5398L2.13457 10.5916C2.22445 10.6124 2.31778 10.6245 2.41111 10.6245C2.47334 10.6245 2.53556 10.6176 2.59605 10.6038C2.72395 10.5744 2.84148 10.5156 2.94173 10.4309C3.00223 10.6245 3.10593 10.8025 3.24593 10.9494C3.51729 11.2277 3.90617 11.3659 4.41259 11.3677H4.72024L4.5647 11.0842ZM4.41605 11.181C3.01778 11.181 3.05235 9.98152 3.05235 9.98152C2.97803 10.2045 2.79482 10.3739 2.56494 10.4292C2.51827 10.4413 2.46815 10.4465 2.41976 10.4465C2.34025 10.4465 2.26247 10.4361 2.18642 10.4171C2.3126 10.0835 2.3126 9.71363 2.18642 9.38005C2.0879 9.10348 2.04124 8.80965 2.04642 8.51583C1.88741 8.71116 1.64371 8.8183 1.39136 8.80276H1.38272C1.15803 8.80622 0.947166 8.69387 0.824449 8.50718C1.75605 8.12005 1.66445 6.87041 1.66445 6.87041C1.55729 6.9361 1.43284 6.97065 1.30667 6.96893H1.28766C0.769138 6.96893 0.596301 6.41929 0.596301 6.41929H0.606672C1.15457 6.402 1.6679 6.14276 2.00667 5.7124C2.36272 5.26128 2.65309 4.86375 3.22864 4.70818L3.28568 4.69782L3.29778 4.64077C3.31334 4.55264 3.25284 4.46794 3.12494 4.38152C2.33161 3.863 2.87087 3.1993 2.87087 3.1993C2.87087 3.1993 3.09556 3.72993 3.60545 3.72993H3.62964C3.6884 3.72818 3.74545 3.723 3.80247 3.71264L3.89581 3.69363C3.81629 3.42399 3.89581 3.13189 4.09976 2.93831C4.30024 2.7309 4.57852 2.6151 4.86717 2.61855C4.91729 2.61855 4.96916 2.62201 5.01928 2.63065C4.84641 2.86053 4.71852 3.24078 4.92075 3.47411C5.09358 3.67634 5.52223 3.68499 5.52223 3.99264C5.52223 4.12053 5.40298 4.26917 5.19039 4.40224C4.54741 4.8067 3.90964 5.34423 3.64518 6.06324C3.31507 6.96029 3.6884 7.55658 4.22075 7.89706C4.10494 7.99387 3.96147 8.05435 3.81111 8.06993H3.66765C3.38938 8.082 3.11457 7.99734 2.89161 7.82965C2.93655 8.06646 3.04198 8.2877 3.19926 8.46917C3.46371 8.77511 3.85605 8.94447 4.26051 8.92718C4.25705 9.0914 4.18446 9.24694 4.05828 9.3524C3.92 9.44571 3.76271 9.50447 3.59681 9.52523C3.59681 9.52523 4.2 9.64794 4.26569 10.5381C4.26394 10.7645 4.31928 10.9875 4.4247 11.1879L4.41605 11.181Z" fill="#121315"/>
<path d="M1.29976 5.45654H1.30149C1.36717 5.45654 1.43457 5.44617 1.4968 5.42545C1.66272 5.35283 1.80272 5.23187 1.90124 5.07976C2.03087 4.9 2.19853 4.74964 2.3921 4.63901L2.63408 4.5094L2.40939 4.35211C2.28494 4.27259 2.14149 4.22765 1.99457 4.22593C1.80272 4.22765 1.62124 4.30888 1.49161 4.45063C1.31877 4.65111 1.08025 4.78765 0.819266 4.83605L0.575562 4.84817L0.67408 5.07283C0.795068 5.30792 1.03531 5.45482 1.29976 5.45654ZM1.61087 4.56816C1.70766 4.45928 1.84593 4.3953 1.99284 4.3953C2.10519 4.39705 2.21581 4.43163 2.31087 4.49211C1.82173 4.75311 1.71976 5.17135 1.44667 5.26641C1.40173 5.28199 1.35334 5.29064 1.30494 5.29064C1.10445 5.29064 0.921239 5.18 0.827908 5.0037C1.1321 4.95358 1.40865 4.79976 1.61087 4.56816ZM2.40076 7.40617C2.37138 6.85653 2.50619 6.31036 2.79138 5.83852C2.61163 6.36048 2.75163 6.94124 3.15262 7.32148C3.15262 7.32148 2.19163 6.17036 3.53459 4.99159C4.07212 4.54223 4.65805 4.26569 4.96052 4.06864C3.86817 4.4247 3.3341 4.03235 3.3341 4.03235C3.64001 4.27087 4.03411 4.36418 4.41435 4.28641C4.33829 4.32271 4.25877 4.36247 4.17411 4.40741C3.25286 4.90864 2.41977 5.7331 2.28323 6.87382V6.86518C2.06891 7.98518 1.59187 8.27211 1.59187 8.27211C1.97039 8.08542 2.21064 7.58075 2.26768 7.40789C2.33163 8.3931 2.81212 9.07581 3.37385 9.73259C3.54495 9.92964 3.67977 10.1578 3.76793 10.4049C3.72124 10.1578 3.61411 9.92446 3.45681 9.72741C2.93829 9.09654 2.43706 8.30494 2.40076 7.40617ZM6.68371 5.32518C6.74419 5.26641 6.82889 5.23877 6.91359 5.24913V5.57578C6.91188 5.65702 6.89112 5.73482 6.85136 5.80566H7.17802C7.13829 5.73482 7.11754 5.65702 7.11582 5.57578V5.24913C7.19877 5.23877 7.28347 5.26641 7.34395 5.32518V5.09876H6.68371V5.32518ZM6.54718 3.75753H6.54371C6.59383 3.80075 6.6526 3.8353 6.71658 3.85605L6.75805 3.87506V3.66076L6.37435 3.5C6.39335 3.60717 6.45558 3.70048 6.54718 3.75753ZM7.45805 3.75581L7.4563 3.75753C7.54793 3.70048 7.61013 3.60717 7.62917 3.5L7.24546 3.66076V3.87334L7.28519 3.8543C7.34917 3.83358 7.40793 3.799 7.45805 3.75581Z" fill="#121315"/>
<path d="M8.14593 2.88989C8.14593 2.56668 7.60147 2.27631 7.00171 2.27631C6.40195 2.27631 5.85753 2.56668 5.85753 2.88989L5.8696 2.96939L6.10988 4.3521L5.8696 4.4921L5.24223 4.84816C5.24223 4.84816 5.10223 4.92075 5.03653 4.96397C4.79976 5.1368 4.7496 5.36839 4.88617 5.46867C4.92072 5.23357 5.12641 5.06075 5.36494 5.06768C5.5637 5.07285 5.74864 5.17309 5.86099 5.33728C5.89554 5.37879 5.92665 5.42373 5.9543 5.46867C5.9906 5.52743 6.02689 5.57927 6.06319 5.62939H4.46271C4.59753 5.86099 4.6753 6.12198 4.69259 6.38987V9.94521C4.69259 10.8094 5.35454 11.2156 6.0753 11.2156C6.6284 11.2156 6.70271 11.1896 7.00689 11.4938C7.31111 11.1896 7.38542 11.2156 7.93852 11.2156C8.65406 11.2156 9.32123 10.8059 9.32123 9.94521V6.39333C9.33852 6.12544 9.41629 5.86445 9.55111 5.63285H7.93331C7.9696 5.58273 8.00593 5.53086 8.04223 5.4721C8.07159 5.42716 8.10271 5.38222 8.13554 5.34074C8.2496 5.17656 8.43454 5.07632 8.63331 5.07111C8.87183 5.06421 9.07753 5.23704 9.11207 5.4721C9.25036 5.37357 9.20024 5.12644 8.96171 4.96744C8.89777 4.9225 8.75777 4.85162 8.75777 4.85162L8.13554 4.48521L7.8953 4.3452L8.13554 2.96248L8.14593 2.88989ZM6.08912 3.0489L6.93259 3.33408V4.65804L6.31207 4.32963L6.08912 3.0489ZM4.80837 5.86274H6.26195C6.3743 5.98027 6.51259 6.07358 6.6647 6.13234C6.63183 6.24644 6.64048 6.36915 6.68717 6.47803C6.74247 6.59385 6.84099 6.68373 6.96195 6.73039C6.98442 6.92915 7.11924 7.09509 7.30765 7.16075C7.20394 7.2662 7.10195 7.36469 7.06048 7.40445L6.0943 7.38891C6.06147 7.37333 6.03554 7.34915 6.01825 7.31804V7.30593L6.17554 7.33186H6.18593C6.21701 7.33186 6.24295 7.3111 6.24813 7.28002C6.25331 7.24544 6.23084 7.21433 6.19629 7.20744L6.00271 7.17632L6.21701 6.43309L6.01307 6.00445L5.68641 6.35014L5.66566 7.12273L5.44617 7.08816C5.41159 7.08126 5.38048 7.10373 5.37358 7.13828V7.14002C5.36837 7.17457 5.39084 7.20569 5.42542 7.21262L5.51701 7.22644C5.48418 7.24545 5.46171 7.25927 5.46 7.26274L5.44099 7.27656V7.29903C5.39777 7.49604 5.47729 7.70003 5.63976 7.81755V7.84521C5.62936 7.91262 5.67605 7.97656 5.74346 7.98864H5.76418C5.82123 7.98864 5.87135 7.94891 5.88346 7.89186C5.92494 7.89357 5.9647 7.89357 6.00617 7.89186H6.03207L7.299 8.12174L7.31976 8.10791C7.42 8.03704 7.80542 7.76222 7.93159 7.66373C7.96789 7.69481 8.00936 7.7225 8.05259 7.74322C7.99382 7.92469 8.03876 8.12346 8.17012 8.26174H4.92418V6.39333C4.91729 6.21186 4.87753 6.0321 4.80837 5.86274ZM7.82271 7.5721C7.69135 7.66891 7.36813 7.90397 7.2506 7.98692L6.10123 7.78644V7.75533C6.12024 7.67756 6.1306 7.59803 6.13235 7.51851L7.10024 7.53409L7.11924 7.51508C7.13482 7.49951 7.44072 7.20397 7.59629 7.03286C7.63777 7.08469 7.68617 7.12791 7.74147 7.16249C7.71382 7.30421 7.74319 7.45111 7.82271 7.5721ZM5.90247 7.36469V7.36987C5.9284 7.41827 5.96641 7.45975 6.01307 7.48743C6.01135 7.55827 6.00442 7.62744 5.99235 7.69656C5.99235 7.7121 5.99235 7.72767 5.98024 7.74322V7.76744C5.90072 7.76744 5.82295 7.75533 5.74689 7.73111C5.60864 7.6568 5.53084 7.50469 5.55331 7.34915C5.61554 7.30592 5.68641 7.27828 5.76072 7.26791C5.8247 7.2662 5.88171 7.30421 5.90247 7.36469ZM5.78319 7.13481L5.80223 6.40373L5.97506 6.23087L6.08048 6.45039L5.87482 7.16249L5.78319 7.13481ZM7.81406 10.9857H7.64813L7.77777 10.5622C7.79852 10.5035 7.69135 10.4274 7.64641 10.36C7.75183 10.424 7.86072 10.481 7.97307 10.5329C7.97307 10.5467 7.81406 10.9857 7.81406 10.9857ZM8.25825 10.5121L8.24442 10.5L8.15454 10.9667C8.09753 10.9667 8.03701 10.9788 7.98171 10.9822L8.07677 10.5329C8.10442 10.3997 7.74665 10.36 7.57036 10.0956C7.45454 10.1923 7.30593 10.2373 7.15729 10.2217C7.02593 10.22 6.89629 10.2062 6.76837 10.1803C6.74593 10.1785 6.72346 10.1785 6.70099 10.1803C6.64741 10.1768 6.59554 10.2044 6.56789 10.2511L6.54195 10.2943L6.04936 10.1751L5.93183 10.379C5.91283 10.4067 5.91629 10.4447 5.94048 10.4689L5.97331 10.5052C5.94048 10.5691 5.899 10.6279 5.84888 10.678L5.77629 10.5882C5.72099 10.4983 5.72617 10.3825 5.7884 10.2978L5.98195 9.97111L6.39506 10.0333L6.33111 9.88644C6.2447 9.69286 6.37605 9.44569 6.38988 9.30397C6.38988 9.34716 6.34494 9.35581 6.3 9.35581H6.18072C6.17207 9.35409 6.16171 9.35409 6.15307 9.35581L6.04072 9.42322L5.95259 9.34198C5.93876 9.31604 5.94394 9.28497 5.9647 9.26593L6.16864 9.03605L5.92665 8.75433L6.27235 8.92716L6.37605 8.80274C6.4037 8.83039 6.39159 8.90298 6.39159 8.90298C6.64223 8.96521 6.81677 9.19334 6.80988 9.45262V9.50274C6.84442 9.55803 6.89976 9.59605 6.96195 9.61162L7.43036 9.65827C7.5237 9.62891 7.61876 9.60987 7.71554 9.59779C7.79852 9.59779 7.88147 9.62373 7.9506 9.66863C7.98346 9.6462 8.02319 9.63234 8.06295 9.63063H8.07852C8.28765 9.63063 8.37578 9.82074 8.48813 9.97632C8.57283 10.0956 8.68689 10.2753 8.68689 10.2753C8.65406 10.3237 8.60048 10.3531 8.54171 10.3531C8.52099 10.3548 8.50195 10.3548 8.48123 10.3531C8.25653 10.3116 8.2237 9.84839 8.09578 9.8121H8.07506C8.05084 9.8121 8.0284 9.82593 8.01629 9.8484C8.07506 10.0057 8.04048 10.0696 8.10442 10.1941C8.15111 10.2684 8.20988 10.3358 8.27729 10.3929C8.27729 10.3929 8.26864 10.462 8.25825 10.5121ZM5.74 10.0593H5.73653L5.75729 10.1129C5.74346 10.1595 5.58442 10.2269 5.58442 10.2269L5.54988 10.1509C5.50494 10.042 5.53777 9.91756 5.63283 9.84668L5.89382 9.68768L6.17207 9.74644C6.17036 9.80174 6.18765 9.85532 6.22048 9.90026L5.92837 9.84497L5.75554 9.96593C5.72789 9.99015 5.72271 10.0282 5.74 10.0593ZM9.08271 9.94692C9.10171 10.4274 8.76813 10.8491 8.29629 10.9425L8.37578 10.5242C8.37578 10.5 8.38442 10.4706 8.38789 10.4464C8.41207 10.4568 8.43629 10.4637 8.46048 10.4689C8.48813 10.4706 8.51578 10.4706 8.54346 10.4689C8.63852 10.4689 8.7284 10.4257 8.78542 10.3496L8.84765 10.277L8.79578 10.2062C8.79578 10.2062 8.68 10.023 8.59358 9.90198L8.54518 9.82939C8.44837 9.68421 8.32566 9.50098 8.08195 9.50098H8.05948C8.02494 9.50273 7.98864 9.50963 7.95578 9.52174C7.88147 9.48545 7.80024 9.46644 7.71729 9.46644C7.6343 9.46815 7.55135 9.48373 7.47358 9.5131L7.43207 9.52521L6.97578 9.48026C6.95677 9.47162 6.94123 9.45779 6.92912 9.4405L7.02765 9.40074C7 9.07062 6.68195 8.86839 6.50912 8.80098C6.50048 8.76469 6.48319 8.73357 6.45729 8.70767L6.35876 8.61433L6.27235 8.71803L6.22912 8.76987L5.5896 8.50716L6.00617 9.02568L5.84195 9.27457C5.80741 9.30915 5.80566 9.3662 5.84195 9.4025L6.01482 9.52003L6.18765 9.45433H6.20494C6.20494 9.48027 6.18593 9.58568 6.17729 9.61508L5.87653 9.56322L5.55506 9.73604C5.40641 9.84321 5.35454 10.0403 5.43235 10.2062L5.46864 10.284L5.51876 10.3946L5.63111 10.3479C5.5896 10.4603 5.60689 10.5847 5.67948 10.6798L5.74689 10.7662L5.83677 10.8803L5.93701 10.7731C6.00271 10.7074 6.05454 10.6314 6.09084 10.5467L6.11159 10.4776L6.06319 10.424V10.4136L6.11852 10.3237L6.51777 10.417L6.60765 10.4378L6.65605 10.3583L6.68195 10.3151C6.68195 10.3064 6.68195 10.3047 6.70617 10.3047H6.74936C6.88593 10.3323 7.02418 10.3462 7.16247 10.3479C7.25578 10.3531 7.34912 10.3427 7.439 10.3151L7.66024 10.5674L7.52888 10.9719V10.996C7.33183 10.9926 7.14346 11.0739 7.01036 11.2173C6.79777 11.0064 6.64741 10.984 6.07876 10.984C5.39605 10.984 4.93454 10.5847 4.93454 9.94692V8.39138H9.08271V9.94692ZM9.19506 5.86274C9.12418 6.03039 9.08617 6.21014 9.07924 6.39333V7.55827C8.92888 7.52544 8.81653 7.39756 8.80617 7.24373V7.19015H8.7543C8.66442 7.18321 8.58147 7.14174 8.51924 7.0778C8.44319 6.98963 8.40171 6.87903 8.4 6.76322C8.32566 6.88421 8.33259 7.03975 8.419 7.15385C8.48641 7.23852 8.58494 7.29556 8.69207 7.30939C8.72319 7.50987 8.88394 7.66544 9.08442 7.69138V8.26174H8.35852C8.1684 8.16497 8.08888 7.93851 8.17358 7.74322L8.20123 7.68098L8.13729 7.6568C7.92988 7.58421 7.81578 7.36126 7.88147 7.15038L7.8953 7.09852L7.84689 7.07604C7.66542 6.97062 7.56518 6.76497 7.59454 6.55755C7.49948 6.65433 7.4753 6.80126 7.53578 6.92222C7.50123 6.96198 7.45629 7.00864 7.40617 7.0605C7.2247 7.02249 7.09331 6.8652 7.08641 6.68026V6.63704L7.04665 6.6215C6.94123 6.59039 6.85482 6.5178 6.8047 6.42099C6.77183 6.3415 6.76494 6.25162 6.78741 6.16863C6.82195 6.17556 6.85653 6.18074 6.89111 6.18421C6.92566 6.18593 6.96195 6.18593 6.99653 6.18421C7.27653 6.18421 7.54271 6.06322 7.72936 5.85581L9.19506 5.86274ZM8.07506 4.68397L8.35852 4.8568L8.42936 4.89827C8.28247 4.93804 8.14936 5.01755 8.04394 5.12815L8.03183 5.13852C8.00765 5.16445 7.98518 5.19038 7.96271 5.21803L7.94888 5.23533C7.92641 5.26297 7.90566 5.29234 7.88665 5.32345L7.87629 5.33903C7.85207 5.37357 7.8296 5.41162 7.80717 5.44963C7.64988 5.7625 7.34394 5.97162 6.99653 6.0062C6.64912 5.97162 6.34319 5.7625 6.18593 5.44963C6.16346 5.41162 6.14099 5.37532 6.11852 5.33903L6.1047 5.32002L6.04936 5.23014L6.03382 5.2111C6.01135 5.18345 5.98888 5.15756 5.96641 5.13334L5.9543 5.12126C5.84888 5.01063 5.71578 4.9311 5.56888 4.89138L5.64147 4.84987L5.92665 4.67704L6.21876 4.50421L6.99825 4.92768L7.77777 4.51803L8.07506 4.68397ZM7.69135 4.33828L7.07084 4.66496V3.33581L7.91259 3.05063L7.69135 4.33828ZM7 3.19581L6.07701 2.82594C6.15482 2.63927 6.51777 2.48026 7 2.48026C7.48223 2.48026 7.84518 2.63927 7.92295 2.82594L7 3.19581Z" fill="#121315"/>
</svg>
