<svg width="16" height="16" viewBox="0 0 16 16" fill="none" xmlns="http://www.w3.org/2000/svg">
<path d="M13.7239 8.94293C14.2445 8.42227 14.2445 7.578 13.7239 7.05733L13.0572 6.39065C12.8071 6.1406 12.6667 5.80146 12.6667 5.44784V4.66679C12.6667 3.93041 12.0697 3.33346 11.3333 3.33346H10.5523C10.1987 3.33346 9.85953 3.19298 9.60946 2.94293L8.9428 2.27627C8.42213 1.75557 7.57787 1.75557 7.0572 2.27627L6.39052 2.94293C6.14048 3.19298 5.80134 3.33346 5.44772 3.33346H4.66667C3.93029 3.33346 3.33333 3.93041 3.33333 4.66679V5.44784C3.33333 5.80146 3.19286 6.1406 2.94281 6.39065L2.27615 7.05733C1.75545 7.578 1.75545 8.42227 2.27615 8.94293L2.94281 9.6096C3.19286 9.85967 3.33333 10.1988 3.33333 10.5524V11.3335C3.33333 12.0699 3.93029 12.6668 4.66667 12.6668H5.44772C5.80134 12.6668 6.14048 12.8073 6.39052 13.0573L7.0572 13.724C7.57787 14.2447 8.42213 14.2447 8.9428 13.724L9.60946 13.0573C9.85953 12.8073 10.1987 12.6668 10.5523 12.6668H11.3333C12.0697 12.6668 12.6667 12.0699 12.6667 11.3335V10.5524C12.6667 10.1988 12.8071 9.85967 13.0572 9.6096L13.7239 8.94293Z" stroke="#4CE97D" stroke-width="1.5" stroke-linecap="round"/>
<path d="M6.33331 8.27281L7.11291 9.05241C7.13425 9.07374 7.16878 9.07374 7.19005 9.05241L9.33331 6.90921" stroke="#4CE97D" stroke-width="1.5" stroke-linecap="round"/>
</svg>
